<?xml version="1.0" encoding="utf-8"?>
<!-- Generator: Adobe Illustrator 23.0.1, SVG Export Plug-In . SVG Version: 6.00 Build 0)  -->
<svg version="1.1" xmlns="http://www.w3.org/2000/svg" xmlns:xlink="http://www.w3.org/1999/xlink" x="0px" y="0px"
	 viewBox="0 0 612 500.8" style="enable-background:new 0 0 612 500.8;" xml:space="preserve">
<style type="text/css">
	.st0{fill:#231F20;}
	.st1{font-family:'Raleway-Light';}
	.st2{font-size:74.3754px;}
	.st3{font-size:35.4168px;}
	.st4{fill:#231F20;stroke:#231F20;stroke-width:2;stroke-miterlimit:10;}
</style>
<g id="Layer_1">
</g>
<g id="Isolation_Mode">
	<path d="M443.1,83.4c-0.9-0.6-1.9-1-3-1c-2.2,0.1-4.4-0.3-6.6-0.6c-1-0.1-2.1-0.1-3,0.2c-1.5,0.5-2.8,0.4-4.2,0.1
		c-2-0.5-3.9-1.3-6-1.3c-0.1,0-0.3-0.1-0.4-0.1c-3.5-1.4-7.2-2.2-10.7-3.9c-0.1,0-0.1-0.1-0.2-0.1c-1.3,0-2.6-0.2-3.8-0.6
		c-0.3,0.1-0.7,0.2-1.2,0.2c-0.3,0-0.6,0-0.9,0c-2.1,0.2-4.3,0.6-5.9,2c-1.3,1.1-2.5,1.1-3.9,0.6c-0.4-0.1-0.7-0.3-1.1-0.4
		c-2.6-0.7-5.2-1.3-7.9-1.1c-2.2,0.2-4.5,0.1-6.8,0c-2.9-0.1-5.9-0.2-8.8-0.3c-2.3,0-4.5-0.2-6.7-0.8c-0.3-0.1-0.7-0.2-1-0.1
		c-0.8,0-1.5,0.6-1.7,1.4c-0.2,0.8,0,1.2,0.9,1.8c0.4,0.3,0.9,0.6,1.2,1c3,3.6,5.9,7.3,8.3,11.4c1.6,2.8,3,5.8,3.6,9
		c0.7,3.2,1.2,6.4,1.8,9.6c0.5,3,1.2,5.9,0.5,9c-0.1,0.6,0.1,1.1,0.5,1.6c0.2,0.3,0.4,0.8,0.4,1.2c-0.1,2.4-0.2,4.7-0.5,7.1
		c-0.7,5.5-1.4,11.1-2.2,16.6c-0.2,1.1-0.2,2,0.3,3c0.2,0.4,0.2,0.9,0.3,1.3c0,1.6,0.1,3.2-0.1,4.7c-0.4,4.7-0.3,9.3,0.7,13.9
		c0.2,1,0.3,2.1,0.4,3.4c-2.1-1.6-3.2-4.1-5.8-4.6c-0.2,1.2,0,2.1,0.7,2.9c2.7,3.7,5.3,7.4,8,11.1c0.9,1.2,1,2.3,0.4,3.7
		c-1.3,3.1-2.6,6.3-3.7,9.5c-1.3,3.9-1.9,7.8-1.5,12c0.3,2.5,0.3,5,0.5,7.5c0.4,4.3,0.6,8.7,1.2,13c0.7,4.6,1.2,9.2,1.8,13.8
		c0.5,4-0.5,7.8-2.4,11.3c-1.4,2.6-3.6,3.9-6.2,5c-0.2-0.5-0.3-0.9-0.5-1.5c-0.9,1.4-1.8,2.5-3.3,3c-2.3,0.7-4.5,1.3-6.8,1.8
		c-0.3,0.1-0.5,0.1-0.7,0c-0.3,0-0.7,0.1-1,0.1c-0.6,0.1-1.3,0.1-1.9,0c-0.1,0-0.2,0-0.4,0c-3.7-0.3-7.2-1.3-10.3-3.4
		c-1.7-1.1-3.3-2.3-4.9-3.4c-0.9-0.6-1.9-1.1-3-1.2c-0.3-0.7-0.6-1.3-0.8-2c-1.1-3.7-2.2-7.4-3.3-11c-1-3.2-1.8-6.5-1.4-9.9
		c0-0.4,0-0.9-0.1-1.3c-1.2-4.3-1.2-8.7-1.1-13.1c0-0.8,0.1-1.6,0.3-2.3c0.9-4.3,1.9-8.6,2.9-12.8c0.9-3.9,0.7-7.6-0.5-11.4
		c-1-3.3-1.8-6.8-2.6-10.2c-0.7-2.7-1.1-5.4-1.9-8.1c-0.9-3.3-0.8-6.5,0.2-9.8c0.5-1.4,0.7-3,0.8-4.5c0.1-1.3,0.1-2.7,0-4
		c-0.2-4.2-0.4-8.5-0.7-12.7c-0.1-2.2-0.5-4.3-0.7-6.5c-0.2-2-0.5-3.9-0.6-5.9c-0.2-4,0.5-8,1.2-11.9c1.6-9.2,5.1-17.5,10.8-24.8
		c2.2-2.8,4.4-5.6,6.6-8.4c0.4-0.5,1-1,0.7-1.7c-0.3-0.8-1.1-0.7-1.7-0.8c-0.1,0-0.2,0-0.3,0c-1.6-0.2-3.2-0.3-4.8-0.9
		c-0.5-0.2-1.1-0.2-1.7-0.1c-2.3,0.4-4.5,0.9-6.8,1.4c-2.3,0.5-4.4,0.2-6.4-1.4c-1.4-1.1-2.8-2.1-4.3-2.9c-3-1.7-5.9-3.3-9-4.9
		c-1.5-0.5-2.7-1.2-4-2.1c-0.3,0.2-0.8,0.1-1.6-0.1c-1.2-0.3-2.4-0.7-3.6-1.1c-1.6-0.6-3.2-0.8-4.9-0.3c-0.4,0.1-0.8,0.1-1.1,0.1
		c-4.5,0-8.9,0.3-13.4,0.9c-3.2,0.4-6.4,0.9-9.3,2.5c-1.5,0.8-2.8,0.9-4.2,0.2c-2.5-1.2-5-2.4-7.5-3.5c-0.3,0.1-0.6,0.1-0.9,0
		c-0.4-0.1-0.8-0.2-1.2-0.5c-0.1,0-0.2,0.1-0.3,0.1c-0.5,0.2-1,0.3-1.6,0.3c-0.2,0-0.3-0.1-0.5-0.1c-0.4,0.1-0.9,0.2-1.6,0.2
		c0,0-0.1,0-0.1,0c-2.8,0.2-5.6,0.4-8.3,0.6c-1.1,0.1-1.2,0.2-1.3,1.3c-0.2,1.4,0.2,2.6,1.2,3.6c2.8,2.8,5.2,5.9,7.7,9
		c2,2.5,4,4.9,5.4,7.8c0.1,0.1,0.2,0.2,0.2,0.4c3.1,4.1,5,8.8,6,13.8c0.7,3.8,1.2,7.7,1.6,11.6c0.6,4.9,1,9.8,0.2,14.8
		c-0.1,0.6-0.1,1.2,0,1.8c0.2,1.4,0.6,2.8-0.2,4.2c-0.1,0.2,0,0.6,0,0.9c0,0.4,0,0.9-0.1,1.3c-1.3,4.8-2.6,9.6-4.6,14.2
		c-0.5,1.1-0.7,2.2-0.5,3.4c0.3,1.3-0.4,2.3-0.8,3.4c-0.1,0-0.2,0-0.3,0c-0.2-0.6-0.3-1.1-0.5-1.7c-0.3,1.5-0.3,2.9-0.3,4.3
		c0,8.4,0,16.8,0.1,25.2c0,3.1,0.1,6.2,0.2,9.3c0.3,0.3,0.5,0.6,0.8,1c0,0,0-0.1,0-0.1c0.4,0.4,0.6,0.5,0.7,0.7c0.9,2,1.9,4,2.7,6.1
		c0.3,0.9,0.4,2.1,0.3,3c-0.2,1.3-0.1,2.5,0.2,3.8c1.1,4.5,2,9,2.3,13.7c0,0.6,0.1,1.3,0.1,1.9c-0.1,2.3,0.4,4.5,0.7,6.8
		c0.1,0.6,0.1,1.3,0,1.9c-0.1,1.4-0.2,2.9-0.3,4.3c-0.2,3.3-0.4,6.5-0.6,9.8c-0.1,1.9-0.8,3.6-1.8,5.1c-0.9,1.3-1.8,2.5-2.8,3.8
		c-0.1,0.1-0.2,0.2-0.6,0.4c-0.3,0.3-0.6,0.5-0.9,0.6c-0.2,1.3-0.9,2-2.6,2.6c-4,1.6-8.1,2.6-12.5,2.7c-0.9,0-1.7-0.2-2.4-0.7
		c-0.6-0.4-1.2-1-1.8-1.2c-3.1-1-5.4-3.1-7.6-5.4c-2.4-2.5-4.2-5.5-6.1-8.4c-0.6-0.9-0.9-1.7,0.1-2.5c-1.1-1.4-2.1-2.7-3.1-4.1
		c-0.8-1.2-1-2.5-0.5-3.9c2.2-5.5,4.3-11,6.5-16.5c0.9-2.2,1.6-4.4,2.4-6.7c0.5-1.6,1.2-3.1,2.4-4.3c0.3-0.2,0.5-0.6,0.5-1
		c0.4-2,0.8-4,1-6c0.3-3.4,0.6-6.8,0.8-10.2c0.2-3.2,0.7-6.4,0-9.5c-0.9-3.8-2.1-7.5-3.3-11.2c-0.5-1.6-1.3-3.2-1.9-4.8
		c-1-2.9-1.8-5.9-3.1-8.6c-1.8-3.9-1.6-2.8-1.8-7.8c0-0.1,0-0.2,0-0.3c-0.3-3.7,0-7.3,0.6-10.9c0.5-3,1.1-6,0.9-9.1
		c0-0.6,0.1-1.2,0.2-1.8c0.6-3.1,0.7-6.2,0-9.3c-1-3.9-2.2-7.7-3.4-11.5c-0.1-0.3-0.2-0.6-0.4-1c-1.4-3-2.3-6.1-3-9.3
		c-0.3-1.6-0.8-3-1.6-4.4c-1.6-2.9-1.5-5.7,0.3-8.5c2.8-4.5,5.4-9,8.1-13.5c0.2-0.4,0.5-0.7,0.7-1.1c0.8-1.6,0.1-3-1.6-3.3
		c-0.8-0.1-1.5-0.1-2.3-0.2c-3.5-0.6-6.9-0.2-10.2,0.8c-1.8,0.5-3.6,0.8-5.5,1.1c-0.5,0.3-1,0.5-1.7,0.4c-0.3,0.1-0.7,0.1-1.1,0.1
		c-0.3,0-0.6-0.2-0.9-0.3c0,0-0.1,0-0.1,0c-0.4-0.1-0.7-0.2-1.1-0.2c-4.1-0.7-8.2-0.6-12.3-0.2c-2.5,0.2-4.9,1-7.3,1.5
		c-2.3,0.4-4.6,0.6-6.8,1.3c-3.4,1.1-6.7,0.8-10.1,0.2c-2.6-0.5-4.6-2-5.7-4.5c-0.1-0.2-0.3-0.4-0.4-0.7c-0.1,0-0.2,0-0.3,0.1
		c0,0.7,0.1,1.3,0,2c-0.3,2.6,0.4,5,1.6,7.4c2,4,3.7,8.2,4.6,12.6c1.4,6.6,2.6,13.3,3,20c0,0.4,0.1,0.8,0.2,1.2
		c0,0.1,0.1,0.1,0.2,0.2c0.3-0.2,0.5-0.4,0.9-0.8c0.1,0.9,0.2,1.7,0.2,2.4c0.1,2.9,0.4,5.7,1.3,8.5c0.2,0.6,0.2,1.4,0.3,2
		c0.1,0.9,0.1,1.8,0.1,2.7c0.1,3.2,0.2,6.3,0.1,9.5c-0.1,3.6-0.6,7.2-0.9,10.8c-0.4,5.4-0.8,10.7-1.3,16.1
		c-0.6,6.6-0.3,13.1,1.3,19.6c0.9,3.7,2,7.4,4.5,10.5c1.3,1.6,1.9,3.6,2.4,5.6c0.5,1.8,1.1,3.5,1.6,5.2c0.4,1.2,0.8,2.4,0.9,3.6
		c0.4,4.2,0.6,8.4,0.8,12.6c0.1,2.4,0,4.7-0.5,7.1c-0.1,0.6-0.1,1.4,0.2,2c0.4,1.2,0.7,2.4,0.6,3.6c-0.1,2.3-0.3,4.5-0.4,6.8
		c-0.2,3-0.6,5.9-0.6,8.9c-0.2,7.9-0.1,15.7,0.3,23.6c0.1,2.7,0.7,5.2,2.1,7.6c2.3,4,4.5,8.2,6.8,12.2c0.6,1.1,1.5,2.2,2.4,3.1
		c0.6,0.6,1.3,0.9,2.1,1.2c1.5,0.6,3,1.2,4.6,1.7c1.4,0.5,2.8,1.1,4.2,1.4c1.7,0.4,3,1.3,4,2.7c0.4,0.6,0.7,1.2,1.1,1.8
		c0.5,0.9,1,1.6,1.9,2.2c0.5,0.3,0.8,0.7,1.1,1.2c2.2,0.6,4.1,2.1,5.5,4.1c1.3,0.9,2.7,1.5,4.2,1.9c1.5,0.4,3.1,0.8,4.6,1
		c3.6,0.6,7.3,0.8,10.9,0.2c1.1-0.2,2.2-0.4,3.3-0.6c1.1-0.2,2.3-0.4,3.3-0.8c0.9-0.3,1.7-0.7,2.5-1.1c0.7-0.3,1.4-0.3,1.9,0.4
		c1,1.4,2.4,1.9,4,2.1c1.7,0.2,3.5,0.3,5.2,0.5c1.8-0.3,3.7-0.4,5.5-0.4c1.5-0.3,3-0.7,4.5-1c2.3-0.5,4.7-1,7.1-1.5
		c1.4-0.3,2.8-0.8,4-1.5c2.5-1.3,4.9-2.6,7.4-4c0.6-0.3,1.1-0.8,1.5-1.3c0.8-0.8,1.5-1.6,2.3-2.5c1.7-1.9,2.9-4,3.7-6.5
		c1.9-5.9,3.8-11.7,4.6-18.1c0.4,0.3,0.6,0.5,0.8,0.8c0.6,0.8,1.2,1.7,1.8,2.5c1.1,1.5,2.3,2.8,4,3.5c0.7,0.3,1.1,0.8,1.3,1.4
		c0.4,0.1,0.8,0.3,1.2,0.5c0,0,0,0,0,0c0.6,0.3,1.2,0.6,1.7,0.9c1.2,0.8,2.3,1.6,3.5,2.3c1.8,1.1,3.4,2.3,4.8,3.7
		c1,1,1.9,1.9,2.9,2.9c0.6,0.6,1.1,1.4,2.1,1.3c0.3,0,0.5,0.4,0.8,0.6c1.3,1.5,2.6,3,4.4,4c0.4,0.2,0.7,0.6,1.1,1
		c1.2,1.4,2.3,2.9,4.2,3.5c0.2,0.1,0.3,0.2,0.4,0.4c2.7,2.9,6.1,4.8,9.4,6.8c1.7,1,3.5,1.7,5.4,2c8.2,1.4,16.1,0.5,23.3-3.9
		c0.4-0.2,0.8-0.4,1.1-0.7c4.2-2.4,8.5-4.5,13.1-6.1c2.3-0.9,4.6-2,6.8-3.2c2-1,4-2.2,6-3.4c0.6-0.7,1.4-1.2,2.3-1.7
		c0.5-0.9,1.2-1.7,1.9-2.5c4.6-5.5,7.9-11.9,10.9-18.4c2.9-6.2,3.8-13,4.9-19.7c0.8-4.6,1.3-9.3,2.1-13.9c0.4-2.4,1.2-4.8,1.4-7.3
		c0.4-4.3,0.4-8.6,0.6-12.9c0.1-1.1,0.1-2.2,0.3-3.2c0.3-1.6,0.4-3.2,0-4.8c-0.8-3.6-1.6-7.2-2.6-10.8c-0.4-1.7-0.5-3.4,0-5.1
		c1.7-6.4,3.3-12.9,3.7-19.6c0.2-3.7,0.5-7.4,0.7-11.1c0.1-1.6-0.3-3.1-0.9-4.6c-0.5-1.2-0.9-2.4-1.2-3.6c-0.5-1.9-0.9-3.8-1.3-5.8
		c-0.5-2-0.5-3.9-0.1-5.9c0.5-2.6,0.7-5.2-0.4-7.7c-0.2-0.4-0.2-0.9-0.3-1.3c-0.1-2.5-0.4-5-0.2-7.4c0.4-5.3,1.2-10.6,2.4-15.8
		c0.4-1.6,1.1-3.2,1.7-4.7c0.4-1,0.8-1.9,1.3-2.8c0.6-1.1,1.1-2.3,1.8-3.4c2.1-3.4,4.3-6.8,6.5-10.1c1.1-1.7,2.4-3.2,3.7-4.7
		c0.9-1,1.9-1.8,2.9-2.7C444.5,85.1,444.4,84.3,443.1,83.4z M437.9,86.9c-0.1,0.4-0.4,0.7-0.6,1c-2.3,3.2-4.6,6.3-7.7,8.7
		c-0.8,0.6-1.4,1.5-2,2.3c-0.3,0.4-0.5,0.9-0.1,1.3c0.5,0.5,0.3,1,0.1,1.5c-0.7,1.8-1.4,3.6-2.2,5.3c-2,4.3-3.9,8.6-4.2,13.5
		c-0.1,1.3-0.4,2.6-0.7,3.9c-0.9,3.4-0.3,6.9-0.2,10.3c0.1,1.9,0.1,3.9,0.2,5.8c0,1.2-0.1,1.3-1,2.7c-2.2-4.3-4-8.8-4.6-13.6
		c-0.8-0.1-0.7,0.4-0.8,0.9c-0.8,4.3-0.1,8.2,1.8,12c0.4,0.7,0.7,1.4,1.1,2.1c0.4,0.9,0.8,1.8,1.1,2.7c0.3,0.9,0.3,1.8,0.5,2.9
		c1.6,0.3,1.9,1.7,2.2,3.1c0.7,3.5,1.5,6.9,2.1,10.4c0.5,2.7,0.8,5.5,1,8.2c0.1,2.6,0,5.2-1.1,7.7c-0.4,0.8-0.2,1.9,0,2.9
		c0.1,0.6,0.1,1,0,1.5c-0.8,3.5-1.6,6.9-3.1,10.1c-0.2,0.5-0.4,1.1-0.4,1.7c-0.1,2.7-1,5.2-2.3,7.6c-0.4,0.7-0.8,1.5-1.1,2.2
		c-1.4,3.5-2.9,6.9-4.8,10.1c-1.4,2.5-2.7,5-4.2,7.4c-0.3,0.5-0.5,0.9-0.8,1.4c-0.1,0.5-0.2,0.9-0.5,1.2c-0.3,1-0.6,2-0.7,3.1
		c-0.1,0.4-0.2,0.8-0.4,1.2c0,0,0,0,0,0c0,0.1-0.1,0.2-0.1,0.2c-0.3,0.6-0.7,1.2-1.1,1.7v12.1c0.4-0.7,0.6-1.2,0.9-1.8
		c0.4,0.4,0.7,0.8,1.1,1.2c0.7-0.6,0.9-1.3,0.9-2.1c-0.3-6.7,1.6-12.8,4.8-18.5c1.4-2.6,2.6-5.3,3.9-7.9c1.2-2.5,2.6-5,4.2-7.2
		c0.5-0.7,0.9-1.4,0.7-2.3c-0.1-0.6,0.2-1,0.9-1.4c0.5,1.5,0.9,2.9,0.9,4.4c0,3.6,0.1,7.1,0,10.7c-0.2,8-1.1,15.9-2.4,23.7
		c-0.8,5.2-1.3,10.5-2,15.7c-0.5,3.4-1.1,6.7-1.7,10.1c-0.1,0.6-0.3,1.1-0.6,1.6c-1.3,2-2,4.2-2.8,6.5c-0.9,2.4-2.2,4.5-3.8,6.5
		c-0.3-0.3-0.6-0.5-0.9-0.8c-0.1,0.1-0.3,0.1-0.4,0.2c-0.4,0.5-0.7,1.1-1.1,1.6c-0.4,0.5-0.7,1-1.2,1.3c-1.2,0.7-1.9,1.7-2.5,2.9
		c-0.4,0.8-1,1.5-1.7,2c-2.7,2.4-5.3,4.7-8,7c-1.2,1-2.7,1.5-4.3,1.6c-1.1,0.1-2,0.4-2.9,1.1c-1.9,1.4-4,2.1-6.4,1.9
		c-1.6-0.1-3.2-0.2-4.7-0.3c-1.3-0.1-2.5-0.6-3.5-1.6c-0.2-0.2-0.5-0.4-0.7-0.7c-0.1,0.1-0.2,0.1-0.2,0.2c0.2,0.5,0.4,0.9,0.8,1.7
		c-0.7-0.1-1.2-0.2-1.7-0.3c-1.9-0.6-3.8-1.1-5.6-1.7c-0.5-0.2-1-0.3-1.5-0.5c-0.9-0.2-1.7-0.5-2.3-1.3c-0.3-0.5-0.8-0.6-1.3-0.4
		c-0.5,0.2-0.8,0.7-0.7,1.3c0.1,1.4,0.7,2.7,1.6,3.7c1.3,1.4,2.9,2.2,4.7,2.6c2.9,0.7,5.8,1.3,8.7,2c0.4,0.1,0.9,0.3,1.5,0.5
		c-0.3,0.2-0.5,0.4-0.6,0.4c-4.3,1.6-8.7,2.8-13.2,3.3c-0.1,0-0.2,0-0.3,0c-0.9,0.1-1.6,0-2.1-0.2c-0.4,0-0.8-0.1-1.2-0.2
		c-0.3-0.1-0.6-0.2-0.8-0.3c0,0-0.3-0.1-0.3-0.1c-0.4,0-0.8-0.1-1.1-0.3c-0.4,0-0.9,0-1.5-0.1c-1.5-0.2-2.9-0.7-4.3-1.3
		c-2.7-1.2-5.4-2.6-8-4c-0.3-0.1-0.5-0.4-0.8-0.6c-0.8-0.8-1.6-1.6-2.5-2.4c-1.2-1.2-2.4-2.3-3.6-3.4c-1.1-1.1-2.1-2.3-3.1-3.5
		c-0.3-0.4-0.7-0.8-0.8-1.2c-1-2.9-2.1-5.8-2.9-8.8c-0.5-1.7-0.5-3.6-0.8-5.4c-0.3-1.7-0.5-3.5-1-5.2c-1.1-3.6-2.4-7.2-3.7-10.8
		c-1.4-4-3.7-7.4-6.5-10.4c-0.5-0.5-1-1-1.8-0.7c-0.4,0.8-0.3,1.6,0.2,2.3c0.3,0.4,0.6,0.9,0.9,1.3c2.1,2.9,3.5,6.1,4.7,9.5
		c2,5.9,3.4,12,4.6,18.2c0.3,1.8,0.9,3.5,1.4,5.3c0.1,0.6,0.2,1.1,0.4,1.8c-1.6-0.8-3.2-1.3-4.1-2.7c-0.2-0.3-0.5-0.4-0.8-0.6
		c-1.7-1.1-3.4-2.2-5.1-3.3c-1.3-0.8-2.4-1.8-3.7-2.5c-0.2-0.1-0.5-0.3-0.7-0.5c-1.5-0.6-2.9-1.9-3.3-3.4c-0.9-0.8-1.8-1.7-2.6-2.5
		c-0.2-0.2-0.4-0.5-0.5-0.7c-0.3-1.5-1.4-2.6-2.3-3.7c-1.2-1.5-2.1-3.1-2.8-5c-1.5-4.4-2.9-8.8-3-13.5c0-0.9-0.2-1.9-0.4-2.8
		c-0.9-3.6-0.9-7.3-0.5-10.9c0.4-3.3,0.9-6.5,1.4-9.8c0.1-0.5,0.1-1,0.2-1.5c-1.5,0.1-2.4,0.8-2.9,2.1c-1.1,2.8-1.9,5.6-2.3,8.5
		c-0.6,4.1-0.3,8.2,0.3,12.3c0.6,3.8,1.2,7.6,1.8,11.4c0.6,3.6,1.9,6.8,4.1,9.7c0.7,0.9,0.9,1.8,0.7,2.9c-1.1,4.5-2.1,9-3.2,13.5
		c-0.4,1.6-0.9,3.2-1.9,4.6c-0.1,0.2-0.3,0.4-0.7,0.8c0.1-1.5,0.2-2.6,0.3-3.7c-0.1,0-0.2-0.1-0.3-0.1c-0.2,0.4-0.4,0.8-0.6,1.3
		c-0.8,1.9-1.6,3.8-2.4,5.7c-0.8,1.9-2.1,3.2-3.7,4.2c-1.3,0.9-2.6,1.8-3.9,2.8c-4.4,3.3-9.3,5.3-14.7,5.8c-1.1,0.1-2.2,0.3-3.3,0.3
		c-0.4,0-0.7,0-0.9-0.1c-0.2,0-0.4,0-0.6,0c0,0-0.1,0-0.1,0c0,0-0.1,0-0.1,0c0,0,0,0,0,0c0,0,0,0,0,0c-0.2,0-0.5,0.1-0.7,0.1
		c-0.1,0-0.2,0-0.2,0c-0.2,0.1-0.5,0.2-0.9,0.1c-1.6,0-3.2-0.2-4.7-0.4c-0.7-0.1-1.3-0.6-2.1-1c3.1-2.9,6.2-5.4,7.4-5.9
		c0.1-0.1,0.2-0.3,0.3-0.4c0,0,0,0,0,0c0,0,0,0,0,0c0.4-0.8,0.9-1.6,1.6-2.1c0.8-1.9,1.7-3.7,2.7-5.5c1.2-2.2,2.9-3.9,4.6-5.6
		c2.3-2.2,4.5-4.5,6.6-6.8c0.3-0.3,0.5-0.9,0.7-1.3c-0.9-0.6-1.5-0.3-2.2,0.1c-2.4,1.4-4.6,3-6.5,5.1c-1.8,2-3.5,4-5.2,6.1
		c-0.4,0.5-0.6,1.1-1,1.6c-0.1,0.2-0.3,0.4-0.8,0.8c0,0,0,0,0,0c-0.2,0.2-0.5,0.4-0.8,0.6c-0.3,1.4-0.9,2.6-2,3.8
		c-3.9,4-8.3,7.4-13.7,9c-2.7,0.8-5.5,1-8.3,0.9c-2-0.1-4,0-6,0.7c-1.1,0.4-1.7-0.2-2.2-1.3c-1.2,1.1-2.2,0.6-3.3,0
		c-2.5-1.5-5-2.9-7.5-4.3c-1.2-0.7-1.9-1.5-2.4-2.6c-1.2-0.9-2.1-2.2-2.7-3.5c-0.5-0.9-1.1-1.8-1.6-2.8c-0.4-0.7-0.8-1.4-1-2.1
		c-0.2-0.6-0.4-1.4-0.2-2c0.4-1.1,0-1.9-0.7-2.7c-0.8-0.8-1.6-1.6-2.4-2.3c-2.8-2.5-5.7-4.9-8.5-7.3c-1.3-1.1-1.8-0.9-2.4,0.7
		c-0.6,1.6-0.6,2,0.8,2.8c3.1,1.7,5.3,4.2,7,7.3c0.9,1.7,1.8,3.4,2.7,5.1c-1.3,0.2-2.4,0.1-3.4-0.5c-0.9-0.6-1.9-1.1-2.9-1.6
		c-4.2-2.3-7-5.7-9-10.1c-3.3-7.2-4.6-14.7-4.3-22.6c0.4-10.8,0.7-21.5,0.9-32.3c0.1-3.5-0.3-7-0.5-10.5c-0.2-3.1-0.4-6.3-0.7-9.8
		c0.6,0.6,0.9,0.9,1.2,1.3c2.1,2.6,3.4,5.6,4.5,8.7c0.7,1.9,1.3,3.7,2,5.5c0.9,2.3,1.4,4.6,1.7,7c0.1,0.9,0.4,1.8,0.7,2.7
		c0.1,0.4,0.5,0.8,0.7,1.2c0.9,0,1.1-0.6,1.2-1.1c0.3-1.5,0.7-3.1,0.6-4.7c-0.3-3.2-0.9-6.4-1.5-9.5c-0.2-1.1-0.8-2.1-1.3-3.1
		c-2.3-4.2-4.7-8.3-7-12.4c-2.6-4.6-5.3-9.3-7.9-14c-0.4-0.8-0.6-1.7-0.9-2.6c-0.2-0.5-0.3-1-0.5-1.5c-0.5-1.1-1.2-2.1-1.4-3.2
		c-0.5-2.3-0.8-4.8-1.2-7.1c-0.3-1.6-0.5-3.1-0.8-4.8c0.2-0.1,0.5-0.3,0.8-0.5c0.7-6,1-12.1,0.8-18.2c-0.2-4.5,0.1-9,0.2-13.5
		c0.1-5.1,0.1-10.2,0.2-15.3c0-0.7-0.1-1.4-0.7-1.9c-0.7-0.6-0.8-1.3-0.8-2.1c-0.1-1.9,0-3.8-0.2-5.6c-1.5-10.5-3.3-21-6.8-31
		c-0.5-1.3-0.8-2.7-1.2-4.1c-0.1-0.3-0.1-0.6-0.1-1c0.5,0,1-0.1,1.4,0c2.9,0.4,5.8,0,8.7-0.5c3.7-0.6,7.4-1.3,11.1-1.7
		c1.7-0.2,3.4,0,5.2,0.1c0.5,0,1,0.4,1.6,0.6c-0.4,0.8-0.7,1.5-1.2,2.1c-2,2.5-3.1,5.3-3.6,8.4c-0.1,0.6,0.1,1.3,0.3,1.8
		c0.4,0.9,0.5,1.9,0.4,2.9c-0.5,3.9-0.2,7.8,0.3,11.7c0,0.4,0.1,0.8,0.3,1.1c1.4,1.8,1.8,4,2.2,6.2c0.2,1.5,0.4,3,0.7,4.5
		c0.4,2,0.2,4-0.1,6c-0.3,2-0.2,4,0.7,6.1c0.5-0.4,1.1-0.6,1.2-0.9c1.1-2.3,2.1-4.5,2.4-7.1c0.2-1.5,0-3-0.4-4.4
		c-1.2-4.2-2.4-8.3-3.5-12.5c-1.1-4-1.6-8.1-0.7-12.2c0.5-2.3,1.3-4.5,2-6.8c0.4-1.5,1-2.9,1.4-4.4c0.4-1.2,1.1-2.1,2.3-2.5
		c1.2-0.4,2.5-0.9,3.7-1.1c0.7-0.1,1.2-0.1,1.6,0.1c0.3,0,0.7,0.1,1,0.2c0.2,0,0.4,0,0.6,0c0.6-0.1,1.2-0.2,1.7-0.3
		c2.6-0.7,5.2-1.4,7.8-2c1.7-0.4,3.5-0.5,5.3-0.7c0.5-0.1,1,0.1,1.5,0.1c0,0.1,0.1,0.2,0.1,0.3c-1.4,0.9-2.1,2.4-2.8,3.8
		c-0.4,0.8-0.8,1.5-1.2,2.2c-0.5,0.8-1.2,1.4-2.2,1.6c-1.4,0.3-2.1,1.3-2.5,2.6c-0.7,2.2-1.4,4.4-2,6.7c-0.5,1.8-0.9,3.5-1.5,5.3
		c-0.3,0.9-0.6,1.9-1.1,2.7c-0.7,1.2-1,2.5-1.2,3.9c-0.2,1.3-0.4,2.5-1.3,3.9c0-0.1,0-0.2,0-0.2c-0.1,0.6-0.4,1.2-0.8,1.6
		c0.1,6.3,0,12.6,0.2,18.9c0.2,5.8,0.6,11.6,1,17.5c0.1,1.2,0.1,2.4,0.2,3.8c0.3-0.4,0.4-0.7,0.6-1c0.8,0.7,1.7,1.5,2.6,2.3
		c0.5-0.7,0.5-1.3,0.4-2c-0.2-3.7-0.4-7.4-0.7-11.1c-0.4-5-1-10-0.4-14.9c0.6-4.4,1.4-8.8,2.1-13.2c0.4-2.7,0.9-5.4,1.9-7.9
		c0.2-0.6,0.5-1.2,0.9-2.1c0.5,1.6,0.8,2.9,1.3,4.1c0.9,2.5,1.8,4.9,2.8,7.3c2.1,5.4,3.3,11,3.9,16.8c0.3,2.6,0.6,5.3,0.6,8
		c0.1,3.7-0.6,7.4-1.3,11c-0.8,4.3-0.9,8.6-0.5,13c0.1,1,0.4,2,0.8,3c2.3,6,4.7,11.9,7,17.9c0.9,2.2,1.3,4.5,1.5,6.9
		c0.2,3.6,0.3,7.2,0.5,10.8c0,0.4,0,0.8-0.1,1.2c-1.1,5.7-1.8,11.6-3.9,17.1c-2,5.5-4,11-5.9,16.5c-0.5,1.5-0.9,3.1-1.4,4.7
		c-0.1,0.4-0.3,0.8-0.4,1.2c-0.1,0-0.3,0-0.4,0c-0.1-0.8-0.2-1.6-0.3-2.4c-0.6-3.4-1.1-6.8-1.7-10.2c-0.4-2.1-1.2-4.1-2.4-5.8
		c-1.7-2.5-3.5-5-5.2-7.4c-0.4-0.6-0.9-1-1.6-0.7c-0.6,0.3-0.8,0.9-0.6,1.7c0.5,2,1,3.9,2,5.7c2,3.4,3.3,7,4.5,10.7
		c2.1,6.5,4.2,12.9,6.3,19.4c0.2,0.6,0.4,1.3,0.5,1.9c-1.7,1.6-1.7,2.1-0.2,3.8c3.7,4.2,7.6,8.2,11.8,11.9c0.7,0.6,1.5,1.1,2.2,1.7
		c2.7,2.3,5.9,3,9.3,3c1.2,0,2.5-0.3,3.7-0.5c2.9-0.6,5.7-1.4,8.3-2.9c0.8-0.5,1.7-0.8,2.7-0.2c0.3-0.4,0.5-0.7,0.8-1
		c0.5-0.5,1-0.7,1.7-0.5c1,0.2,1.2,0,1.7-1c0.6-1.1,1.2-2.3,1.8-3.4c3.8-6.2,3.1-5.5,4-11.9c0.3-2.4,0.6-4.8,0.9-7.2
		c0.1-0.6,0.3-1.1,0.4-1.6c0.1,0,0.2,0,0.4,0c0.2,0.8,0.4,1.6,0.5,2.4c0.5,4.1,1,8.2,0.6,12.4c-0.2,2.1-0.6,4.2-1.3,6.2
		c-0.4,1.3-0.7,2.6-1.1,3.8c-0.2,0.8-0.2,1.4,0.2,2.1c0.8-0.1,1.3-0.5,1.7-1.2c0.5-1,1-2,2-2.6c0.3-0.2,0.4-0.6,0.5-1
		c1.3-5.5,2.2-11.1,1.6-16.9c-0.2-1.4-0.2-2.9-0.2-4.3c0-2.5-0.6-4.8-1.3-7.1c-3.3-11.6-6.7-23.2-9.8-34.9c-1-3.8-1.5-7.8-2.2-11.6
		c-0.3-1.7-0.7-3.5-1-5.2c-0.5-2.2-0.7-4.5-0.5-6.8c0.2-1.7,0-3.5,0-5.2c0.1-3.1,0.8-6.1,1.9-8.9c0.5-1.2,0.9-2.4,1.3-3.6
		c1.5-4.2,3-8.5,4.4-12.7c1.1-3.2,2.1-6.3,3.2-9.5c0.5-1.6,0.9-3.2,1.5-4.8c0.8-2.3,1.1-4.6,1.3-7c0.5-5,0.8-9.9,1.3-14.9
		c0.1-0.8-0.1-1.5-0.6-2.2c-0.4-0.5-0.6-1.3-0.7-2c-0.4-1.6-0.7-3.2-1.1-4.7c-0.3-1.3-0.4-1.3-1.7-2c-0.7,0.7-0.7,1.5-0.6,2.4
		c0.4,3,0.7,6,1.1,9c0.6,4.8,0.1,9.5-0.9,14.1c-0.4,1.7-0.7,3.4-1.1,5.1c-0.1,0.3-0.2,0.6-0.6,1c-0.1-0.3-0.3-0.7-0.3-1
		c0-1.3-0.1-2.7,0.1-4c0.2-1.7,0-3.4-0.2-5c-0.5-4.4-1.1-8.8-1.7-13.2c-0.1-1.1-0.3-2.2-0.7-3.2c-1.6-3.9-3.1-7.8-4.9-11.5
		c-0.9-2-2.2-4-3.5-5.8c-1.2-1.7-1.9-3.4-1.9-5.5c0-0.7,0-1.5,0-2.2c-0.1,0-0.2,0-0.3,0c-0.2,1-0.3,2.1-0.5,3.1
		c-1.3-0.4-2.9-2.1-4.8-4.9c-0.3-0.4-0.3-0.9-0.6-1.5c1.8-0.3,3.4-0.2,4.8,0.6c0.7,0.4,1.4,0.6,2.2,0.4c0.1,0,0.2,0,0.3,0
		c3.9,0.7,7.9,1,10.7,4.4c1.1,1.4,2.5,2.4,4.2,3.1c0.6,0.2,1.1,0.7,1.5,1.1c1.5,1.6,2.9,3.3,4.4,4.9c2.2,2.5,3.8,5.4,4.9,8.6
		c0.6,1.7,1.2,3.5,1.8,5.2c0.2,0.5,0.4,1,0.8,1.3c0.3,0.2,0.9,0.3,1.3,0.1c0.3-0.1,0.5-0.7,0.5-1.1c-0.4-3.3-0.8-6.6-1.2-9.8
		c0-0.1-0.1-0.3-0.1-0.4c-1.3-2.8-2.6-5.7-4-8.5c-1-2-2.7-3.6-4.6-4.8c-1.2-0.8-2.4-1.6-3.7-2.5c0.4-0.2,0.7-0.4,1-0.5
		c2.4-0.8,4.7-1.7,7.2-2.2c2.1-0.5,4.3-0.9,6.5-0.9c3.8-0.1,7.6,0,11.4,0.2c1.4,0.1,2.7,0.6,4,1c0.1,0,0.2,0.1,0.3,0.2
		c0.6,0.1,1.2,0.3,1.7,0.6c0.5,0.2,0.8,0.4,1.1,0.6c3.1,1.9,6.2,3.7,9.3,5.6c0.8,0.5,1.4,1.2,2,1.9c0.6,0.7,0.5,1.2-0.2,1.8
		c-0.2,0.2-0.4,0.4-0.7,0.6c-3.5,2.1-6.6,5-9.7,7.7c-0.4,0.3-0.8,0.7-1.3,1.1c-0.3-0.7-0.5-1.3-0.8-2.2c-0.1,0.6-0.1,0.9-0.2,1.2
		c-0.1,1.9-0.9,3.6-2,5.2c-0.6,0.9-1.2,1.8-1.7,2.8c-0.9,1.9-0.6,2.9,1.1,4c0.3,0.2,0.6,0.3,0.9,0.5c0.3-0.2,0.6-0.4,1-0.7
		c0.3-0.7,0.7-1.2,1.3-1.5c0.3-2,1.1-3.8,2.4-5.4c2.4-3,5.1-5.5,8.3-7.5c1.6-1,3.4-1.4,5.2-2.1c1.3-0.5,2.8-0.7,4-1.6
		c0.6-0.5,1.5-0.6,2.3-0.8c2-0.5,4.1-1,6.1-1.5c0.4-0.1,0.9-0.4,1.4,0.2c-0.1,0.2-0.2,0.5-0.3,0.7c-2.3,2.7-4.3,5.8-7,8.3
		c-0.3,0.3-0.5,0.6-0.7,0.9c-0.7,1.3-1.4,2.6-2.1,3.9c-0.7,1.4-1,2.9-0.9,4.4c0,1.1-0.1,2.2-0.4,3.2c-0.8,3.3-1.7,6.5-2.6,9.7
		c-0.1,0.4-0.2,0.8-0.2,1.2c-0.1,4.1-0.3,8.1-0.3,12.2c0,3.8,0.7,7.6,1.3,11.3c1.2,6.4,0.7,12.8-0.5,19.1c-0.1,0.7-0.4,1.3-0.6,2
		c-0.2,0.7-0.4,1.3-0.5,2c-0.1,0.9-0.1,1.7-0.5,2.6c-0.4,0.9-0.2,1.8,0.2,2.7c2.3,5,3.1,10.5,3.8,15.9c0.5,3.9,0.8,7.8,0.8,11.7
		c0.1,5.4-0.9,10.7-2.8,15.8c-3.1,8.1-5.3,16.5-6.5,25.2c-0.2,1.6-0.3,3.2-0.4,4.9c-0.2,2.6,0.8,4.8,1.8,7.1
		c0.1,0.2,0.2,0.3,0.3,0.5c0.1,0.1,0.3,0.2,0.5,0.3c0.9-0.4,0.9-1.2,0.8-2c-0.2-1.5-0.3-2.9-0.5-4.6c0.4,0.2,0.6,0.3,1,0.4
		c0-0.3,0.1-0.6,0.1-0.9c0-2.7,0-5.4-0.1-8.2c0-1.7,0.2-3.3,0.8-4.8c1-2.5,2-4.9,3-7.3c0.1,0,0.2,0,0.3,0c0.1,0.3,0.2,0.6,0.2,0.9
		c0.2,4.7,0.4,9.5,0.6,14.2c0.1,2.4,0.5,4.6,1.6,6.8c0.8,1.7,1.3,3.5,1.6,5.4c0.6,3.2,1.7,6.1,3.5,8.7c1.1,1.5,2.1,3.1,3.1,4.6
		c1.9,3,4.6,5.3,7.2,7.7c1.3,1.1,2.7,1.9,4.3,2.3c1,0.3,1.9,0.8,2.8,1.4c1.3,0.7,2.4,1.6,3.9,1.9c0.5,0.1,1,0.7,1.6,1.1
		c0.3-1.1,0.5-2.2,0.7-3.2c0-0.2-0.1-0.6-0.3-0.8c-0.1-0.1-0.2-0.3-0.3-0.4c-0.5-0.1-1-0.2-1.4-0.5c-0.2,0-0.4-0.1-0.7-0.2
		c-3.4-1.3-6.6-2.9-9.2-5.6c-0.9-0.9-1.8-1.8-2.7-2.6c0-0.1,0.1-0.2,0.1-0.2c0.8,0.2,1.7,0.4,2.4,0.7c2.8,1.3,5.8,1.3,8.8,0.9
		c0,0,0,0,0,0c0.1,0,0.2-0.1,0.2-0.1c1.2-0.5,2.6-0.5,3.9-0.4c0.2,0,0.5,0,0.8-0.1c2.6,0,5.1-0.2,7.5-1c2.6-0.8,5.1-1.7,7.4-3.2
		c0.4-0.3,0.9-0.5,1.6-0.9c-0.3,1.2-0.5,2.2-0.8,3.2c-0.6,1.8-1.2,3.5-1.8,5.3c-0.2,0.5-0.2,1-0.2,1.5l0.3,0.2
		c0.3-0.2,0.8-0.3,1-0.6c2.8-3.6,5.4-7.2,6.3-11.8c0.4-2.2,0.6-4.5,0.9-6.7c0-0.3,0-0.6,0.1-0.9c1-2.7,0.8-5.4,0.4-8.2
		c-1-7.8-2-15.6-3.1-23.3c-0.4-3-0.8-6.1-0.8-9.1c0-4.7,0.9-9.2,1.8-13.8c0.5-2.4,1-4.8,2.1-7.3c0.3,0.3,0.7,0.4,0.9,0.7
		c3.1,5,5.6,10.3,6.6,16.1c0.5,2.7,0.8,5.4,1.2,8.1c0.1,0.5,0.1,1.1,0.2,1.7c1.4-1,2.1-2.2,2-3.7c-0.2-5.9-1.3-11.7-3.5-17.2
		c-0.9-2.1-1.7-4.3-2.5-6.4c-0.7-1.8-1.4-3.7-2.3-5.4c-1.5-3.1-2.8-6.3-3.5-9.7c-0.7-3.2-1.4-6.4-2.2-9.5c-0.8-3.4-0.8-6.8-0.6-10.3
		c0.1-0.7,0.1-1.5,0.1-2.2c0-0.5-0.1-1.2-0.3-1.6c-0.8-1.2-0.6-2.4-0.5-3.7c1-8.5,2.1-17.1,3.1-25.6c0.1-0.5,0.1-1.1-0.1-1.6
		c-0.6-1.6-0.5-3.3-0.7-5c-0.4-3.2-0.9-6.4-1.4-9.7c-0.2-1.5-0.5-2.9-0.7-4.4c-0.1-0.6-0.3-1.1-1-1.3c-0.5-0.2-0.8-0.5-0.9-1
		c-0.7-2.3-2-4.4-3.4-6.3c-1.3-1.8-2.6-3.7-3.8-5.6c-0.3-0.5-0.6-1-0.9-1.7c1.3-0.2,2.4-0.3,3.6-0.4c4.5-0.5,9-0.4,13.5,0.1
		c2.2,0.3,4.4,0.7,6.5,1.3c1.4,0.4,2.6,1.1,3.8,2.1c4.2,3.5,6.5,8.1,7.5,13.5c0.3,1.9,0.4,3.9,0.6,5.9c0.1,0.6,0.1,1.3,0.2,1.9
		c0.5,2.6,0.4,5.2,0.2,7.8c-0.1,2-0.1,3.9,0.5,5.9c0.1,0.3,0.2,0.8,0,1c-0.6,0.8-0.3,1.7-0.2,2.6c0.3,2.1,0.1,4.1-0.4,6.2
		c-0.7,2.9-1.3,5.9-2,8.8c-0.2,0.8-0.4,1.5-0.8,2.2c-2.1,4.4-2.9,9.2-3.4,14c-0.2,2-0.3,3.9-0.4,5.9c-0.1,2.6,0.5,5.1,1.6,7.4
		c0.7,1.5,1.4,3.1,2.2,4.6c0.8,1.5,1.7,2.9,2.6,4.2c0.2,0.2,0.3,0.4,0.4,0.7c0.4,0.1,0.8,0.1,1.2,0.2c0,0,0,0,0.1,0
		c0.1-0.1,0.1-0.2,0.2-0.3c0.2-0.3,0.3-0.8,0.3-1.2c0-0.4,0-0.8,0-1.3c-0.2-0.7-0.4-1.4-0.5-2.1c-0.5-1-1-2-1.3-3.1
		c-0.2-0.7-0.3-1.5-0.4-2.2c-1.9-8.2-1.8-16.3,0.5-24.4c2.2-7.8,3.1-15.7,2.9-23.9c-0.2-8.2-0.1-16.3-0.1-24.5
		c0-0.7-0.1-1.3-0.3-1.9c-0.5-0.3-1-0.8-1.3-1.3c-0.2-0.4-0.4-0.8-0.5-1.3c-0.4-0.5-0.8-1.1-1.1-1.6c-1-1.6-2.2-3.1-3.6-4.4
		c-0.5-0.4-0.9-0.9-1.2-1.5c-0.5-1-0.1-1.7,0.9-1.8c1.7-0.2,3.5-0.3,5.2-0.5c0.2-0.1,0.5-0.1,0.7-0.1c1.6,0,3.2,0.1,4.4,1.2
		c1.3,0.5,2.6,1.3,3.6,2.5c0.9,1.1,2,2,3.3,2.7c0.7-1.4-0.5-2.4-0.5-3.8c0.5,0.2,0.9,0.3,1.3,0.5c1.4,0.7,2.9,1.4,4.5,1.4
		c0.6,0,1.1,0.3,1.4,0.9c0.1,0.3,0.4,0.7,0.7,0.7c1.3,0.2,2.6,0.4,4-0.2c0.6-0.3,1.4-0.5,2-0.5c2.1-0.1,4.2,0,6.3,0
		c0.4,0,0.8,0,1.1,0.1C438,85.9,438.2,86.4,437.9,86.9z"/>
	<path d="M290.9,198.9c-1.1-0.4-1.4-1-1.5-1.8c-0.1-0.9-0.2-1.8-0.2-2.7c0.1-2.3,0.2-4.6-0.1-6.9c-0.2-1.6,0.3-3.1,1-4.4
		c3.1-5.9,5.2-12.3,7.9-18.4c1.5-3.3,1.5-6.8,1.3-10.3c-0.3-4-1.5-7.7-3.6-11.1c-1.3-2-2.5-4.1-3.7-6.2c-0.2-0.4-0.5-0.9-0.6-1.3
		c0-0.4,0.1-1,0.4-1.2c0.3-0.2,1-0.3,1.3-0.1c1.7,1.3,3.3,2.7,4.9,4.1c0.1,0.1,0.2,0.2,0.2,0.4c0.8,2.4,2.1,4.4,3.3,6.5
		c0.7,1.1,0.8,2.4,0.8,3.7c0,0.7,0,1.2,0.7,1.7c0.4,0.3,0.6,0.9,0.6,1.4c0,0.9-0.2,1.9-0.3,2.8c-0.2,2-0.5,3.9-0.7,5.9
		c-0.2,2.7-0.8,5.3-1.9,7.7c-1.1,2.4-2.3,4.8-3.6,7.1c-2.9,5.1-4.4,10.7-5.4,16.5c-0.2,1.6-0.2,3.2-0.4,4.7
		C291.3,197.5,291,198.1,290.9,198.9z"/>
	<path d="M277.3,172.1c-2,0.1-2,0.1-2.5-1.6c-0.1-0.3-0.1-0.7-0.3-1c-1.6-3.4-0.3-6.7,0.9-9.8c0.3-0.8,1.3-1.4,2-2
		c0.6-0.4,1.2-0.1,1.2,0.7c0.1,1.3,0,2.6-0.1,3.8c-0.1,0.8-0.4,1.6-0.6,2.4c-0.6,1.9-1.1,3.9-0.6,6
		C277.4,171,277.3,171.5,277.3,172.1z"/>
	<text transform="matrix(0.9711 0 0 1 52.7503 385.773)" class="st0 st1 st2">WHITEWOODS</text>
	<text transform="matrix(0.9711 0 0 1 161.1917 444.1509)" class="st0 st1 st3">RANCH &amp; RESORT</text>
	<line class="st4" x1="75.4" y1="400" x2="555.4" y2="400"/>
</g>
</svg>
