<?xml version="1.0" encoding="utf-8"?>
<!-- Generator: Adobe Illustrator 23.0.1, SVG Export Plug-In . SVG Version: 6.00 Build 0)  -->
<svg version="1.1" xmlns="http://www.w3.org/2000/svg" xmlns:xlink="http://www.w3.org/1999/xlink" x="0px" y="0px"
	 viewBox="0 0 612 792" style="enable-background:new 0 0 612 792;" xml:space="preserve">
<style type="text/css">
	.st0{font-family:'Raleway-Light';}
	.st1{font-size:54.587px;}
	.st2{font-size:25.9938px;}
	.st3{fill:url(#SVGID_1_);stroke:#000000;stroke-width:2;stroke-miterlimit:10;}
	.st4{fill:url(#SVGID_2_);}
	.st5{fill:url(#SVGID_3_);}
	.st6{fill:url(#SVGID_4_);}
</style>
<g id="Layer_1">
</g>
<g id="Isolation_Mode">
	<text transform="matrix(1 0 0 1 213.3375 228.7081)" class="st0 st1">WHITEWOODS</text>
	<text transform="matrix(1 0 0 1 287.6055 271.5547)" class="st0 st2">RANCH &amp; RESORT</text>
	<linearGradient id="SVGID_1_" gradientUnits="userSpaceOnUse" x1="230.4763" y1="239.1815" x2="593.2469" y2="239.1815">
		<stop  offset="5.618000e-03" style="stop-color:#401617"/>
		<stop  offset="0.0843" style="stop-color:#6B4C2D"/>
		<stop  offset="0.382" style="stop-color:#A58A55"/>
		<stop  offset="0.5618" style="stop-color:#E5D4B5"/>
		<stop  offset="0.8034" style="stop-color:#967857"/>
		<stop  offset="0.9551" style="stop-color:#814F2F"/>
	</linearGradient>
	<line class="st3" x1="230.48" y1="239.18" x2="593.25" y2="239.18"/>
	<linearGradient id="SVGID_2_" gradientUnits="userSpaceOnUse" x1="10.8943" y1="231.0676" x2="223.3268" y2="231.0676">
		<stop  offset="5.618000e-03" style="stop-color:#401617"/>
		<stop  offset="0.0843" style="stop-color:#6B4C2D"/>
		<stop  offset="0.382" style="stop-color:#A58A55"/>
		<stop  offset="0.5618" style="stop-color:#E5D4B5"/>
		<stop  offset="0.8034" style="stop-color:#967857"/>
		<stop  offset="0.9551" style="stop-color:#814F2F"/>
	</linearGradient>
	<path class="st4" d="M222.54,151.84c-0.67-0.47-1.43-0.75-2.24-0.72c-1.68,0.08-3.32-0.26-4.97-0.47
		c-0.73-0.09-1.56-0.07-2.25,0.18c-1.1,0.4-2.15,0.31-3.2,0.05c-1.51-0.38-2.97-0.98-4.56-0.96c-0.1,0-0.21-0.05-0.31-0.09
		c-2.68-0.99-5.48-1.65-8.09-2.86c-0.05-0.02-0.1-0.05-0.15-0.07c-0.96-0.02-1.94-0.16-2.88-0.43c-0.22,0.09-0.5,0.13-0.88,0.14
		c-0.22,0.01-0.44,0-0.65,0.02c-1.61,0.12-3.22,0.4-4.48,1.45c-0.96,0.8-1.87,0.81-2.92,0.42c-0.27-0.1-0.55-0.2-0.83-0.27
		c-1.97-0.49-3.91-0.99-5.99-0.82c-1.69,0.14-3.41,0.06-5.11,0.03c-2.21-0.04-4.42-0.15-6.63-0.19c-1.71-0.03-3.4-0.17-5.06-0.6
		c-0.24-0.06-0.5-0.11-0.75-0.1c-0.6,0.02-1.15,0.47-1.29,1c-0.15,0.56,0.02,0.87,0.68,1.31c0.33,0.22,0.67,0.45,0.93,0.74
		c2.26,2.65,4.48,5.33,6.27,8.34c1.23,2.07,2.26,4.23,2.76,6.59c0.49,2.34,0.93,4.69,1.33,7.05c0.37,2.17,0.9,4.34,0.4,6.58
		c-0.1,0.44,0.1,0.83,0.41,1.18c0.19,0.21,0.33,0.56,0.32,0.84c-0.1,1.74-0.17,3.48-0.39,5.21c-0.51,4.06-1.08,8.12-1.68,12.18
		c-0.12,0.79-0.13,1.49,0.24,2.21c0.14,0.28,0.19,0.63,0.19,0.95c0.01,1.16,0.06,2.33-0.04,3.48c-0.31,3.42-0.19,6.81,0.5,10.18
		c0.16,0.76,0.21,1.54,0.33,2.53c-1.61-1.15-2.42-3.01-4.37-3.35c-0.19,0.88,0.04,1.52,0.5,2.14c2.02,2.7,3.99,5.44,6.05,8.12
		c0.69,0.9,0.74,1.68,0.29,2.7c-1.01,2.29-1.99,4.59-2.8,6.95c-0.97,2.83-1.46,5.75-1.15,8.78c0.19,1.84,0.22,3.69,0.38,5.54
		c0.27,3.18,0.42,6.38,0.91,9.53c0.52,3.37,0.93,6.75,1.33,10.13c0.35,2.96-0.39,5.69-1.8,8.26c-1.02,1.88-2.75,2.87-4.67,3.65
		c-0.14-0.37-0.25-0.66-0.4-1.08c-0.66,1.04-1.39,1.86-2.47,2.17c-1.7,0.5-3.43,0.92-5.16,1.31c-0.21,0.05-0.37,0.05-0.51,0.02
		c-0.26,0.03-0.52,0.05-0.77,0.07c-0.48,0.04-0.96,0.05-1.42-0.03c-0.09,0-0.17-0.01-0.27-0.02c-2.78-0.24-5.43-0.95-7.8-2.47
		c-1.25-0.8-2.47-1.66-3.69-2.5c-0.69-0.47-1.42-0.82-2.3-0.85c-0.2-0.49-0.42-0.95-0.57-1.43c-0.84-2.7-1.66-5.4-2.49-8.11
		c-0.72-2.37-1.33-4.75-1.07-7.27c0.03-0.32,0.02-0.66-0.07-0.97c-0.91-3.15-0.87-6.38-0.83-9.61c0.01-0.57,0.1-1.16,0.23-1.72
		c0.71-3.15,1.43-6.29,2.16-9.43c0.66-2.83,0.5-5.58-0.4-8.36c-0.79-2.44-1.36-4.96-1.99-7.45c-0.5-1.97-0.86-3.97-1.43-5.92
		c-0.71-2.43-0.63-4.77,0.17-7.16c0.35-1.05,0.51-2.18,0.63-3.29c0.1-0.97,0.07-1.96,0.02-2.94c-0.15-3.12-0.31-6.23-0.53-9.34
		c-0.11-1.59-0.35-3.17-0.53-4.76c-0.16-1.44-0.39-2.88-0.48-4.32c-0.17-2.96,0.38-5.85,0.91-8.74c1.22-6.73,3.86-12.82,8.14-18.18
		c1.65-2.07,3.33-4.12,4.98-6.19c0.29-0.36,0.74-0.72,0.55-1.23c-0.21-0.56-0.82-0.5-1.31-0.59c-0.07-0.01-0.14-0.01-0.22-0.02
		c-1.22-0.13-2.45-0.21-3.63-0.66c-0.38-0.15-0.87-0.16-1.28-0.08c-1.71,0.32-3.41,0.67-5.11,1.05c-1.77,0.39-3.35,0.14-4.81-1.01
		c-1.02-0.8-2.13-1.51-3.27-2.13c-2.23-1.23-4.49-2.41-6.77-3.56c-1.1-0.39-2.05-0.92-3.05-1.51c-0.23,0.14-0.6,0.1-1.18-0.05
		c-0.91-0.25-1.83-0.48-2.71-0.8c-1.23-0.44-2.45-0.62-3.72-0.23c-0.27,0.08-0.58,0.07-0.87,0.07c-3.38-0.01-6.74,0.25-10.09,0.66
		c-2.42,0.3-4.84,0.7-7,1.86c-1.12,0.6-2.1,0.63-3.19,0.12c-1.88-0.88-3.75-1.78-5.65-2.6c-0.22,0.04-0.44,0.05-0.66,0.03
		c-0.33-0.04-0.64-0.17-0.9-0.36c-0.08,0.02-0.16,0.04-0.24,0.05c-0.37,0.17-0.79,0.25-1.19,0.2c-0.13-0.02-0.26-0.05-0.39-0.1
		c-0.28,0.1-0.66,0.13-1.21,0.14c-0.04,0-0.07,0-0.11,0c-2.1,0.14-4.2,0.26-6.3,0.42c-0.86,0.06-0.91,0.15-1.02,0.96
		c-0.14,1.03,0.12,1.9,0.89,2.67c2.08,2.08,3.96,4.33,5.81,6.62c1.48,1.83,3.04,3.6,4.11,5.71c0.05,0.1,0.12,0.18,0.19,0.27
		c2.34,3.01,3.8,6.44,4.52,10.15c0.54,2.81,0.88,5.66,1.21,8.5c0.42,3.61,0.72,7.22,0.11,10.85c-0.07,0.42-0.1,0.88-0.04,1.3
		c0.16,1.04,0.45,2.06-0.12,3.07c-0.09,0.16,0.01,0.43,0,0.64c-0.01,0.33,0.01,0.66-0.07,0.97c-0.97,3.53-1.95,7.06-3.49,10.4
		c-0.38,0.82-0.55,1.63-0.35,2.53c0.22,0.95-0.28,1.69-0.64,2.47c-0.08-0.01-0.15-0.02-0.23-0.02c-0.13-0.41-0.26-0.82-0.39-1.23
		c-0.2,1.08-0.21,2.13-0.2,3.17c0.01,6.17,0.01,12.34,0.05,18.51c0.02,2.29,0.08,4.57,0.14,6.86c0.21,0.22,0.41,0.47,0.59,0.72
		c0-0.03,0-0.06,0-0.09c0.27,0.26,0.46,0.36,0.53,0.52c0.7,1.47,1.44,2.93,2.02,4.44c0.26,0.68,0.33,1.51,0.21,2.23
		c-0.16,0.97-0.05,1.87,0.18,2.78c0.83,3.31,1.54,6.63,1.71,10.05c0.02,0.47,0.08,0.94,0.05,1.41c-0.1,1.69,0.28,3.31,0.56,4.95
		c0.08,0.45,0.04,0.93,0.01,1.39c-0.07,1.05-0.18,2.09-0.26,3.14c-0.17,2.39-0.31,4.77-0.48,7.16c-0.1,1.37-0.57,2.62-1.35,3.74
		c-0.67,0.95-1.39,1.85-2.11,2.77c-0.06,0.08-0.18,0.13-0.44,0.27c-0.19,0.19-0.42,0.34-0.67,0.46c-0.17,0.98-0.71,1.45-1.94,1.94
		c-3.03,1.2-6.15,1.91-9.43,1.96c-0.7,0.01-1.27-0.15-1.82-0.55c-0.44-0.32-0.87-0.7-1.37-0.86c-2.34-0.72-4.08-2.27-5.77-3.95
		c-1.85-1.84-3.21-4.02-4.6-6.19c-0.44-0.69-0.65-1.27,0.06-1.84c-0.81-1.03-1.59-1.98-2.32-2.97c-0.64-0.87-0.79-1.81-0.35-2.87
		c1.66-4.02,3.29-8.06,4.9-12.1c0.64-1.61,1.22-3.25,1.8-4.89c0.41-1.17,0.87-2.3,1.82-3.17c0.2-0.18,0.35-0.47,0.41-0.74
		c0.28-1.46,0.62-2.91,0.77-4.39c0.26-2.49,0.44-4.99,0.57-7.49c0.12-2.31,0.53-4.67,0-6.94c-0.65-2.78-1.59-5.49-2.47-8.21
		c-0.39-1.2-0.96-2.34-1.41-3.53c-0.79-2.1-1.37-4.3-2.35-6.31c-1.39-2.86-1.22-2.08-1.36-5.71c0-0.07-0.01-0.15-0.01-0.22
		c-0.21-2.69-0.02-5.36,0.45-8.02c0.39-2.21,0.8-4.43,0.7-6.7c-0.02-0.43,0.09-0.86,0.18-1.29c0.47-2.27,0.57-4.57-0.03-6.8
		c-0.75-2.84-1.68-5.62-2.55-8.43c-0.07-0.24-0.19-0.47-0.3-0.7c-1.04-2.17-1.75-4.45-2.29-6.79c-0.26-1.14-0.62-2.23-1.19-3.25
		c-1.2-2.12-1.12-4.19,0.2-6.27c2.08-3.28,4.11-6.59,6.15-9.89c0.17-0.28,0.36-0.55,0.5-0.84c0.58-1.18,0.09-2.2-1.21-2.44
		c-0.57-0.11-1.16-0.06-1.73-0.17c-2.63-0.47-5.18-0.14-7.73,0.61c-1.34,0.4-2.74,0.61-4.13,0.84c-0.36,0.24-0.79,0.35-1.29,0.3
		c-0.26,0.07-0.53,0.09-0.81,0.06c-0.26-0.03-0.49-0.11-0.71-0.23c-0.03,0-0.06,0-0.08,0c-0.28-0.04-0.56-0.13-0.85-0.17
		c-3.1-0.48-6.23-0.43-9.33-0.12c-1.87,0.18-3.69,0.71-5.54,1.07c-1.71,0.33-3.47,0.46-5.12,0.98c-2.56,0.8-5.09,0.62-7.63,0.13
		c-1.96-0.38-3.46-1.43-4.32-3.3c-0.08-0.17-0.21-0.32-0.32-0.49c-0.07,0.01-0.14,0.03-0.21,0.04c0,0.49,0.04,0.98-0.01,1.47
		c-0.19,1.94,0.31,3.67,1.23,5.4c1.54,2.92,2.8,6,3.51,9.23c1.06,4.85,1.94,9.74,2.29,14.71c0.02,0.29,0.09,0.57,0.16,0.85
		c0.01,0.06,0.08,0.1,0.15,0.16c0.2-0.16,0.39-0.32,0.69-0.57c0.07,0.7,0.15,1.23,0.17,1.77c0.05,2.12,0.34,4.19,1.01,6.2
		c0.16,0.47,0.18,0.99,0.22,1.5c0.06,0.65,0.09,1.3,0.1,1.96c0.05,2.32,0.19,4.64,0.09,6.96c-0.11,2.64-0.44,5.28-0.66,7.92
		c-0.33,3.94-0.6,7.89-0.97,11.82c-0.45,4.85-0.22,9.64,1,14.36c0.71,2.75,1.51,5.44,3.37,7.7c0.98,1.19,1.44,2.66,1.85,4.15
		c0.35,1.29,0.83,2.54,1.23,3.82c0.27,0.86,0.62,1.73,0.7,2.62c0.27,3.07,0.45,6.15,0.64,9.22c0.11,1.74,0.01,3.48-0.34,5.2
		c-0.1,0.47-0.04,1.02,0.12,1.47c0.32,0.87,0.51,1.74,0.46,2.66c-0.1,1.66-0.21,3.33-0.33,4.99c-0.16,2.17-0.43,4.34-0.48,6.51
		c-0.13,5.77-0.06,11.54,0.22,17.3c0.1,1.99,0.55,3.84,1.57,5.59c1.75,2.97,3.37,6.01,5.11,8.98c0.49,0.83,1.14,1.59,1.83,2.27
		c0.42,0.41,1.02,0.68,1.58,0.91c1.14,0.47,2.3,0.88,3.46,1.28c1.06,0.37,2.11,0.77,3.2,1.01c1.29,0.28,2.27,0.93,3.01,1.98
		c0.29,0.41,0.57,0.84,0.82,1.28c0.36,0.64,0.78,1.21,1.44,1.59c0.38,0.22,0.64,0.53,0.8,0.88c1.64,0.45,3.12,1.56,4.16,2.98
		c0.97,0.63,2.01,1.12,3.14,1.43c1.15,0.31,2.33,0.56,3.5,0.74c2.74,0.42,5.48,0.57,8.24,0.11c0.82-0.14,1.64-0.28,2.46-0.45
		c0.85-0.17,1.7-0.33,2.53-0.59c0.65-0.2,1.26-0.54,1.89-0.82c0.56-0.25,1.06-0.21,1.45,0.32c0.74,1.02,1.82,1.4,3.01,1.54
		c1.31,0.15,2.62,0.26,3.93,0.38c1.37-0.21,2.81-0.31,4.13-0.28c1.12-0.26,2.25-0.49,3.38-0.73c1.77-0.37,3.55-0.75,5.33-1.07
		c1.08-0.2,2.09-0.57,3.06-1.09c1.86-0.99,3.74-1.93,5.59-2.93c0.43-0.23,0.81-0.59,1.17-0.94c0.59-0.59,1.15-1.21,1.71-1.82
		c1.27-1.38,2.19-2.96,2.78-4.75c1.4-4.31,2.85-8.61,3.45-13.29c0.29,0.25,0.49,0.38,0.63,0.56c0.47,0.6,0.91,1.22,1.37,1.83
		c0.81,1.09,1.77,2.03,3.03,2.59c0.54,0.24,0.84,0.57,0.98,1.02c0.32,0.08,0.62,0.21,0.9,0.37c0,0,0,0,0-0.01
		c0.44,0.22,0.9,0.42,1.32,0.68c0.89,0.56,1.73,1.19,2.64,1.72c1.32,0.77,2.55,1.66,3.65,2.73c0.73,0.71,1.45,1.43,2.18,2.13
		c0.46,0.44,0.83,1.01,1.6,0.98c0.19-0.01,0.41,0.27,0.58,0.45c1.01,1.09,1.99,2.21,3.33,2.93c0.31,0.17,0.56,0.46,0.8,0.73
		c0.91,1.03,1.77,2.13,3.15,2.6c0.13,0.04,0.23,0.17,0.33,0.28c2.03,2.14,4.58,3.54,7.08,5.01c1.26,0.74,2.63,1.21,4.08,1.45
		c6.21,1.02,12.14,0.34,17.65-2.9c0.28-0.17,0.57-0.32,0.85-0.48c3.16-1.79,6.46-3.27,9.89-4.5c1.77-0.63,3.46-1.48,5.14-2.32
		c1.53-0.77,3.01-1.64,4.53-2.49c0.48-0.49,1.05-0.92,1.72-1.25c0.4-0.66,0.9-1.24,1.4-1.82c3.48-4.06,5.96-8.73,8.27-13.51
		c2.22-4.58,2.85-9.56,3.69-14.49c0.57-3.4,1.01-6.81,1.56-10.21c0.29-1.79,0.87-3.54,1.03-5.33c0.28-3.14,0.32-6.3,0.48-9.45
		c0.04-0.79,0.08-1.6,0.25-2.37c0.26-1.2,0.3-2.38,0.03-3.56c-0.61-2.65-1.24-5.3-1.93-7.92c-0.34-1.27-0.34-2.47,0.01-3.74
		c1.31-4.72,2.51-9.47,2.82-14.38c0.17-2.71,0.38-5.43,0.53-8.14c0.06-1.17-0.25-2.29-0.7-3.38c-0.36-0.87-0.68-1.76-0.92-2.66
		c-0.37-1.4-0.65-2.83-1-4.23c-0.35-1.43-0.37-2.86-0.08-4.31c0.38-1.9,0.57-3.81-0.28-5.66c-0.13-0.29-0.18-0.63-0.19-0.96
		c-0.07-1.81-0.27-3.64-0.13-5.43c0.31-3.9,0.92-7.78,1.84-11.59c0.29-1.19,0.83-2.31,1.29-3.45c0.29-0.7,0.64-1.38,0.99-2.06
		c0.43-0.84,0.83-1.69,1.34-2.48c1.62-2.5,3.24-4.99,4.95-7.43c0.85-1.21,1.83-2.34,2.83-3.44c0.65-0.72,1.46-1.31,2.16-1.99
		C223.59,153.14,223.51,152.53,222.54,151.84z M218.64,154.45c-0.11,0.26-0.29,0.51-0.46,0.74c-1.74,2.32-3.46,4.66-5.84,6.42
		c-0.6,0.44-1.04,1.09-1.52,1.68c-0.22,0.28-0.38,0.66-0.05,0.99c0.37,0.36,0.23,0.72,0.07,1.09c-0.56,1.3-1.07,2.62-1.69,3.89
		c-1.55,3.14-2.94,6.31-3.16,9.87c-0.06,0.97-0.31,1.93-0.56,2.88c-0.65,2.52-0.22,5.05-0.13,7.58c0.05,1.41,0.11,2.83,0.14,4.24
		c0.01,0.85-0.05,0.97-0.73,1.97c-1.69-3.19-3.02-6.44-3.48-9.96c-0.59-0.04-0.56,0.33-0.63,0.64c-0.64,3.12-0.08,6.05,1.4,8.84
		c0.27,0.51,0.56,1.02,0.8,1.55c0.3,0.66,0.63,1.31,0.84,2c0.2,0.65,0.25,1.35,0.38,2.11c1.18,0.23,1.43,1.25,1.65,2.3
		c0.53,2.55,1.14,5.09,1.59,7.66c0.35,2,0.61,4.02,0.72,6.04c0.11,1.91,0.03,3.83-0.81,5.65c-0.27,0.59-0.17,1.43-0.03,2.11
		c0.08,0.41,0.1,0.76,0.01,1.13c-0.61,2.54-1.21,5.08-2.37,7.45c-0.19,0.38-0.29,0.83-0.31,1.25c-0.11,2-0.77,3.83-1.7,5.57
		c-0.29,0.54-0.61,1.07-0.85,1.64c-1.06,2.54-2.22,5.04-3.63,7.42c-1.07,1.81-2.03,3.68-3.15,5.46c-0.22,0.34-0.41,0.69-0.57,1.04
		c-0.06,0.34-0.18,0.64-0.36,0.88c-0.25,0.72-0.42,1.46-0.52,2.24c-0.04,0.31-0.14,0.61-0.27,0.91c0,0,0,0.01-0.01,0.01
		c-0.03,0.06-0.05,0.12-0.08,0.18c-0.21,0.45-0.5,0.88-0.86,1.25v8.91c0.28-0.51,0.47-0.86,0.71-1.3c0.31,0.33,0.56,0.6,0.84,0.9
		c0.52-0.44,0.71-0.95,0.68-1.56c-0.19-4.9,1.23-9.36,3.62-13.58c1.07-1.89,2-3.86,2.97-5.81c0.92-1.85,1.93-3.65,3.16-5.32
		c0.38-0.51,0.64-1.06,0.55-1.71c-0.07-0.46,0.12-0.77,0.66-1.04c0.34,1.07,0.66,2.12,0.67,3.24c0.02,2.61,0.04,5.23-0.02,7.84
		c-0.14,5.85-0.85,11.63-1.82,17.4c-0.64,3.82-0.95,7.7-1.49,11.54c-0.35,2.47-0.82,4.93-1.27,7.39c-0.08,0.42-0.26,0.84-0.49,1.2
		c-0.95,1.48-1.55,3.11-2.15,4.75c-0.65,1.76-1.66,3.29-2.87,4.74c-0.24-0.21-0.46-0.4-0.68-0.6c-0.1,0.05-0.22,0.08-0.28,0.15
		c-0.28,0.38-0.53,0.78-0.82,1.15c-0.27,0.34-0.52,0.75-0.88,0.95c-0.89,0.52-1.44,1.27-1.93,2.15c-0.31,0.56-0.77,1.06-1.26,1.49
		c-2,1.73-4.03,3.44-6.08,5.12c-0.92,0.76-2.04,1.11-3.22,1.18c-0.83,0.05-1.54,0.29-2.22,0.77c-1.43,1.02-3.03,1.53-4.81,1.4
		c-1.19-0.09-2.39-0.12-3.59-0.22c-1-0.08-1.9-0.45-2.64-1.15c-0.18-0.17-0.37-0.32-0.56-0.48c-0.06,0.04-0.12,0.08-0.19,0.12
		c0.16,0.34,0.33,0.67,0.6,1.22c-0.56-0.1-0.94-0.13-1.3-0.23c-1.43-0.41-2.84-0.84-4.27-1.26c-0.38-0.11-0.76-0.26-1.15-0.33
		c-0.7-0.14-1.32-0.37-1.75-0.99c-0.23-0.33-0.57-0.47-0.95-0.32c-0.41,0.17-0.58,0.5-0.54,0.96c0.11,1.05,0.5,1.96,1.22,2.73
		c0.98,1.04,2.21,1.62,3.58,1.93c2.2,0.48,4.39,0.96,6.58,1.45c0.34,0.08,0.66,0.2,1.12,0.35c-0.25,0.17-0.35,0.27-0.48,0.32
		c-3.25,1.19-6.57,2.05-10.01,2.43c-0.07,0.01-0.14,0.01-0.22,0.02c-0.68,0.09-1.2,0.02-1.58-0.16c-0.3-0.02-0.6-0.07-0.9-0.16
		c-0.22-0.07-0.42-0.15-0.64-0.22c-0.03-0.01-0.19-0.04-0.25-0.07c-0.3-0.02-0.58-0.1-0.82-0.22c-0.3,0.01-0.68-0.02-1.15-0.09
		c-1.1-0.16-2.21-0.48-3.22-0.92c-2.06-0.89-4.06-1.92-6.08-2.9c-0.22-0.11-0.4-0.29-0.58-0.46c-0.63-0.59-1.24-1.2-1.87-1.79
		c-0.89-0.85-1.82-1.66-2.69-2.53c-0.82-0.82-1.59-1.7-2.36-2.56c-0.24-0.27-0.5-0.56-0.62-0.88c-0.75-2.15-1.55-4.29-2.17-6.48
		c-0.36-1.28-0.38-2.65-0.6-3.97c-0.21-1.28-0.35-2.6-0.74-3.83c-0.84-2.66-1.81-5.28-2.76-7.91c-1.06-2.91-2.76-5.42-4.95-7.6
		c-0.37-0.37-0.73-0.72-1.37-0.52c-0.3,0.58-0.24,1.14,0.15,1.69c0.23,0.33,0.43,0.67,0.68,0.99c1.62,2.09,2.65,4.48,3.53,6.95
		c1.55,4.35,2.6,8.83,3.49,13.35c0.26,1.31,0.69,2.59,1.04,3.88c0.11,0.4,0.18,0.82,0.3,1.36c-1.25-0.56-2.4-0.92-3.1-2.01
		c-0.13-0.2-0.39-0.32-0.6-0.45c-1.29-0.8-2.59-1.59-3.87-2.4c-0.95-0.6-1.85-1.29-2.82-1.85c-0.19-0.11-0.35-0.23-0.5-0.35
		c-1.14-0.4-2.16-1.39-2.49-2.48c-0.68-0.59-1.34-1.21-1.99-1.84c-0.15-0.15-0.3-0.35-0.35-0.54c-0.24-1.12-1.05-1.88-1.74-2.7
		c-0.92-1.1-1.62-2.31-2.11-3.65c-1.16-3.22-2.17-6.46-2.29-9.92c-0.03-0.68-0.15-1.37-0.32-2.04c-0.69-2.64-0.69-5.32-0.38-8
		c0.28-2.41,0.71-4.81,1.07-7.21c0.05-0.35,0.08-0.7,0.13-1.13c-1.15,0.05-1.81,0.6-2.2,1.55c-0.84,2.02-1.41,4.11-1.74,6.27
		c-0.45,3.01-0.21,6.01,0.26,8.99c0.44,2.79,0.9,5.58,1.36,8.37c0.43,2.63,1.47,5,3.1,7.1c0.51,0.65,0.71,1.31,0.51,2.12
		c-0.81,3.31-1.6,6.62-2.42,9.93c-0.3,1.2-0.67,2.38-1.42,3.39c-0.1,0.14-0.22,0.26-0.5,0.6c0.1-1.06,0.18-1.89,0.25-2.71
		c-0.07-0.02-0.14-0.04-0.21-0.06c-0.15,0.31-0.3,0.61-0.43,0.92c-0.6,1.4-1.2,2.8-1.79,4.2c-0.57,1.36-1.57,2.32-2.79,3.11
		c-1.01,0.65-1.98,1.34-2.95,2.05c-3.33,2.41-7.02,3.89-11.12,4.29c-0.83,0.08-1.66,0.18-2.49,0.24c-0.32,0.02-0.54,0-0.69-0.08
		c-0.14,0.03-0.29,0.04-0.43,0.03c-0.03,0-0.04,0-0.06,0c-0.02,0-0.05,0.01-0.07,0.01c0,0,0,0,0,0c0,0,0,0,0,0
		c-0.18,0.03-0.36,0.06-0.55,0.07c-0.06,0.01-0.12,0-0.18-0.01c-0.14,0.09-0.35,0.12-0.68,0.11c-1.19-0.04-2.38-0.13-3.56-0.3
		c-0.5-0.07-0.97-0.42-1.58-0.7c2.34-2.14,4.68-3.94,5.62-4.33c0.08-0.1,0.17-0.19,0.26-0.27c0,0,0.01-0.01,0.01-0.01c0,0,0,0,0,0
		c0.29-0.61,0.68-1.15,1.2-1.56c0.64-1.36,1.3-2.72,2.05-4.03c0.9-1.59,2.18-2.88,3.51-4.13c1.72-1.62,3.37-3.3,5.02-4.98
		c0.25-0.26,0.37-0.64,0.55-0.98c-0.66-0.42-1.15-0.24-1.64,0.05c-1.79,1.05-3.5,2.22-4.93,3.74c-1.37,1.45-2.66,2.97-3.97,4.48
		c-0.3,0.35-0.49,0.8-0.75,1.2c-0.1,0.16-0.26,0.28-0.58,0.62c0-0.01,0-0.01,0-0.02c-0.18,0.18-0.37,0.33-0.58,0.46
		c-0.24,1-0.71,1.92-1.55,2.76c-2.97,2.97-6.24,5.39-10.33,6.6c-2.05,0.61-4.13,0.73-6.25,0.66c-1.53-0.05-3.05,0-4.51,0.52
		c-0.84,0.3-1.29-0.15-1.68-0.92c-0.88,0.82-1.69,0.44-2.52-0.03c-1.89-1.08-3.79-2.13-5.69-3.19c-0.88-0.49-1.46-1.13-1.81-1.91
		c-0.87-0.7-1.62-1.63-2-2.58c-0.41-0.67-0.81-1.35-1.19-2.04c-0.29-0.5-0.6-1.01-0.78-1.55c-0.15-0.46-0.3-1.03-0.15-1.45
		c0.28-0.84-0.01-1.42-0.55-1.95c-0.59-0.59-1.19-1.17-1.83-1.71c-2.13-1.81-4.27-3.6-6.42-5.39c-0.95-0.79-1.36-0.67-1.84,0.49
		c-0.48,1.17-0.44,1.45,0.63,2.03c2.32,1.25,3.99,3.11,5.28,5.35c0.7,1.21,1.34,2.46,2.03,3.75c-1.01,0.18-1.8,0.07-2.56-0.39
		c-0.71-0.43-1.45-0.82-2.19-1.21c-3.15-1.66-5.29-4.22-6.78-7.41c-2.46-5.27-3.47-10.8-3.27-16.59c0.28-7.9,0.53-15.81,0.69-23.72
		c0.05-2.57-0.2-5.14-0.35-7.71c-0.14-2.3-0.33-4.61-0.51-7.18c0.42,0.44,0.67,0.68,0.89,0.94c1.58,1.9,2.58,4.1,3.41,6.4
		c0.49,1.36,0.97,2.73,1.54,4.07c0.71,1.65,1.07,3.38,1.31,5.15c0.09,0.68,0.3,1.34,0.51,1.99c0.11,0.32,0.35,0.6,0.5,0.85
		c0.66,0,0.81-0.44,0.87-0.8c0.2-1.14,0.53-2.31,0.42-3.43c-0.23-2.34-0.65-4.66-1.11-6.97c-0.16-0.8-0.58-1.56-0.99-2.28
		c-1.75-3.05-3.54-6.08-5.31-9.12c-2-3.41-4.01-6.81-5.98-10.24c-0.33-0.58-0.45-1.28-0.67-1.92c-0.13-0.37-0.26-0.73-0.41-1.08
		c-0.35-0.79-0.87-1.53-1.06-2.35c-0.4-1.72-0.64-3.49-0.94-5.23c-0.2-1.14-0.41-2.28-0.64-3.52c0.14-0.08,0.38-0.22,0.62-0.36
		c0.53-4.44,0.79-8.87,0.63-13.35c-0.12-3.29,0.09-6.6,0.14-9.9c0.06-3.74,0.1-7.47,0.15-11.21c0.01-0.53-0.07-1.03-0.5-1.38
		c-0.51-0.41-0.58-0.98-0.6-1.57c-0.05-1.38,0.02-2.77-0.18-4.13c-1.13-7.72-2.5-15.39-5.16-22.76c-0.36-0.99-0.62-2.01-0.91-3.02
		c-0.06-0.2-0.05-0.43-0.09-0.74c0.39,0,0.74-0.04,1.09,0.01c2.23,0.33,4.41,0,6.6-0.37c2.79-0.47,5.58-0.93,8.39-1.26
		c1.28-0.15,2.6,0.02,3.9,0.1c0.37,0.02,0.74,0.27,1.24,0.46c-0.33,0.57-0.55,1.11-0.91,1.54c-1.5,1.81-2.36,3.9-2.72,6.2
		c-0.07,0.43,0.06,0.93,0.23,1.35c0.27,0.7,0.39,1.39,0.29,2.13c-0.4,2.87-0.12,5.72,0.22,8.57c0.03,0.28,0.09,0.6,0.25,0.81
		c1.03,1.35,1.39,2.93,1.66,4.55c0.18,1.11,0.34,2.22,0.54,3.33c0.27,1.48,0.18,2.93-0.04,4.42c-0.21,1.43-0.17,2.94,0.5,4.49
		c0.41-0.29,0.81-0.42,0.94-0.68c0.81-1.66,1.61-3.33,1.85-5.2c0.14-1.1,0.03-2.17-0.28-3.23c-0.89-3.06-1.81-6.12-2.68-9.19
		c-0.83-2.93-1.19-5.92-0.52-8.93c0.37-1.69,0.97-3.34,1.5-5c0.34-1.07,0.75-2.12,1.08-3.19c0.28-0.9,0.84-1.53,1.71-1.83
		c0.92-0.31,1.85-0.65,2.81-0.8c0.54-0.09,0.92-0.07,1.18,0.07c0.26,0.01,0.53,0.06,0.78,0.16c0.16-0.01,0.31,0.01,0.47,0.03
		c0.46-0.07,0.9-0.13,1.32-0.24c1.97-0.49,3.92-1.05,5.91-1.47c1.3-0.28,2.65-0.38,3.98-0.52c0.38-0.04,0.78,0.06,1.17,0.09
		c0.03,0.07,0.06,0.14,0.09,0.21c-1.09,0.67-1.62,1.74-2.14,2.82c-0.27,0.55-0.57,1.09-0.9,1.61c-0.38,0.6-0.92,1.05-1.63,1.19
		c-1.07,0.22-1.6,0.95-1.91,1.88c-0.53,1.62-1.02,3.25-1.51,4.88c-0.38,1.29-0.71,2.59-1.11,3.87c-0.22,0.69-0.47,1.38-0.83,2
		c-0.52,0.9-0.79,1.86-0.93,2.87c-0.12,0.92-0.28,1.84-0.98,2.88c-0.01-0.07-0.02-0.12-0.03-0.18c-0.1,0.44-0.31,0.85-0.6,1.19
		c0.05,4.61,0,9.23,0.12,13.84c0.12,4.28,0.48,8.55,0.73,12.82c0.05,0.87,0.11,1.74,0.18,2.76c0.19-0.29,0.32-0.49,0.48-0.72
		c0.64,0.54,1.26,1.08,1.96,1.67c0.36-0.48,0.36-0.98,0.33-1.46c-0.17-2.71-0.34-5.43-0.56-8.14c-0.3-3.65-0.78-7.31-0.28-10.96
		c0.44-3.23,1.05-6.44,1.61-9.65c0.34-1.96,0.66-3.94,1.4-5.8c0.18-0.46,0.4-0.89,0.7-1.56c0.37,1.16,0.63,2.09,0.97,2.99
		c0.68,1.8,1.39,3.58,2.1,5.37c1.59,3.97,2.47,8.11,2.97,12.34c0.23,1.94,0.42,3.9,0.46,5.85c0.06,2.73-0.43,5.41-0.95,8.09
		c-0.6,3.15-0.71,6.34-0.37,9.53c0.08,0.74,0.33,1.49,0.61,2.19c1.75,4.38,3.52,8.75,5.31,13.1c0.68,1.64,1,3.34,1.1,5.08
		c0.16,2.64,0.26,5.29,0.38,7.93c0.01,0.29,0.01,0.59-0.05,0.87c-0.87,4.22-1.4,8.51-2.93,12.58c-1.52,4.03-2.99,8.09-4.46,12.15
		c-0.41,1.12-0.71,2.28-1.07,3.42c-0.09,0.3-0.2,0.61-0.3,0.91c-0.11,0-0.21,0-0.32-0.01c-0.08-0.59-0.14-1.18-0.24-1.77
		c-0.42-2.5-0.83-5.01-1.3-7.5c-0.3-1.55-0.93-2.98-1.85-4.26c-1.3-1.83-2.64-3.64-3.96-5.46c-0.3-0.42-0.67-0.73-1.19-0.48
		c-0.48,0.24-0.58,0.7-0.44,1.21c0.39,1.44,0.75,2.87,1.53,4.17c1.48,2.47,2.48,5.16,3.4,7.87c1.61,4.74,3.2,9.48,4.79,14.23
		c0.16,0.48,0.27,0.97,0.4,1.42c-1.28,1.2-1.32,1.51-0.16,2.8c2.78,3.12,5.75,6.05,8.94,8.75c0.53,0.44,1.11,0.82,1.64,1.25
		c2.05,1.66,4.47,2.17,7.01,2.21c0.93,0.02,1.87-0.2,2.79-0.4c2.17-0.46,4.31-1.01,6.24-2.16c0.62-0.37,1.25-0.56,2.04-0.17
		c0.22-0.26,0.4-0.53,0.63-0.75c0.35-0.35,0.74-0.49,1.28-0.4c0.77,0.13,0.89,0,1.26-0.71c0.44-0.83,0.89-1.66,1.39-2.46
		c2.84-4.53,2.33-4.02,2.99-8.71c0.25-1.76,0.42-3.53,0.65-5.29c0.05-0.4,0.2-0.8,0.3-1.19c0.09,0,0.19,0,0.28,0
		c0.12,0.58,0.28,1.16,0.35,1.74c0.39,3.02,0.73,6.05,0.44,9.11c-0.15,1.56-0.48,3.08-0.97,4.56c-0.31,0.93-0.55,1.88-0.86,2.81
		c-0.18,0.55-0.15,1.06,0.16,1.57c0.59-0.07,0.98-0.39,1.25-0.91c0.38-0.74,0.77-1.47,1.55-1.92c0.21-0.12,0.33-0.47,0.39-0.73
		c1-4.07,1.69-8.17,1.19-12.39c-0.12-1.04-0.13-2.1-0.13-3.15c0.01-1.81-0.48-3.51-0.98-5.22c-2.49-8.52-5.03-17.03-7.41-25.59
		c-0.77-2.78-1.1-5.69-1.64-8.54c-0.24-1.28-0.51-2.56-0.78-3.84c-0.35-1.64-0.55-3.27-0.38-4.96c0.13-1.25-0.03-2.53,0-3.8
		c0.05-2.27,0.61-4.44,1.43-6.56c0.34-0.88,0.65-1.77,0.96-2.66c1.11-3.1,2.23-6.21,3.32-9.32c0.82-2.32,1.6-4.66,2.38-7
		c0.39-1.17,0.7-2.37,1.12-3.52c0.6-1.66,0.83-3.38,1-5.11c0.36-3.64,0.63-7.3,0.95-10.95c0.05-0.6-0.05-1.08-0.48-1.58
		c-0.33-0.38-0.43-0.98-0.56-1.5c-0.3-1.16-0.53-2.33-0.84-3.48c-0.26-0.96-0.3-0.96-1.3-1.47c-0.56,0.49-0.54,1.12-0.46,1.79
		c0.28,2.19,0.51,4.4,0.8,6.59c0.47,3.51,0.07,6.95-0.7,10.37c-0.28,1.24-0.54,2.48-0.82,3.72c-0.05,0.23-0.16,0.45-0.44,0.7
		c-0.08-0.24-0.23-0.48-0.23-0.72c-0.01-0.98-0.08-1.97,0.05-2.93c0.17-1.25,0.03-2.46-0.12-3.68c-0.4-3.24-0.81-6.48-1.26-9.71
		c-0.11-0.79-0.24-1.6-0.54-2.32c-1.18-2.85-2.35-5.7-3.68-8.48c-0.71-1.49-1.66-2.9-2.64-4.24c-0.9-1.23-1.4-2.52-1.41-4.02
		c0-0.53,0-1.07,0-1.6c-0.08-0.01-0.17-0.02-0.25-0.03c-0.12,0.76-0.24,1.51-0.36,2.29c-0.98-0.3-2.22-1.54-3.65-3.6
		c-0.2-0.3-0.26-0.69-0.42-1.13c1.37-0.18,2.55-0.18,3.66,0.4c0.53,0.28,1.06,0.47,1.66,0.26c0.07-0.02,0.15-0.03,0.22-0.02
		c2.92,0.5,5.94,0.71,8.07,3.23c0.85,1.01,1.91,1.76,3.16,2.24c0.42,0.16,0.8,0.5,1.12,0.83c1.12,1.19,2.22,2.4,3.31,3.61
		c1.66,1.86,2.89,3.99,3.74,6.33c0.45,1.26,0.87,2.54,1.34,3.79c0.14,0.36,0.34,0.76,0.63,0.97c0.24,0.17,0.71,0.2,0.99,0.09
		c0.2-0.09,0.4-0.53,0.37-0.78c-0.28-2.41-0.61-4.82-0.93-7.23c-0.01-0.11-0.05-0.21-0.1-0.31c-1.01-2.09-1.96-4.21-3.04-6.26
		c-0.79-1.5-2.05-2.62-3.47-3.55c-0.9-0.6-1.82-1.18-2.83-1.84c0.32-0.15,0.53-0.27,0.75-0.33c1.8-0.56,3.58-1.21,5.41-1.63
		c1.62-0.37,3.29-0.63,4.94-0.67c2.86-0.07,5.73,0.02,8.59,0.16c1.03,0.05,2.04,0.47,3.05,0.73c0.1,0.03,0.18,0.07,0.26,0.11
		c0.45,0.05,0.88,0.19,1.27,0.41c0.37,0.18,0.62,0.28,0.84,0.41c2.35,1.37,4.72,2.71,7.04,4.12c0.57,0.35,1.08,0.85,1.52,1.37
		c0.43,0.5,0.35,0.85-0.14,1.32c-0.16,0.15-0.33,0.3-0.51,0.4c-2.68,1.57-4.97,3.64-7.31,5.64c-0.3,0.25-0.61,0.49-0.99,0.79
		c-0.21-0.52-0.38-0.95-0.64-1.59c-0.06,0.45-0.1,0.67-0.12,0.89c-0.1,1.42-0.68,2.65-1.49,3.8c-0.46,0.65-0.89,1.33-1.25,2.04
		c-0.7,1.37-0.48,2.09,0.83,2.9c0.21,0.13,0.44,0.24,0.69,0.38c0.24-0.16,0.49-0.31,0.76-0.49c0.23-0.48,0.56-0.86,0.99-1.14
		c0.25-1.44,0.85-2.77,1.81-3.95c1.78-2.18,3.85-4.07,6.25-5.53c1.18-0.72,2.61-1.06,3.93-1.52c1.02-0.36,2.08-0.54,3-1.2
		c0.48-0.35,1.13-0.47,1.73-0.62c1.54-0.4,3.1-0.76,4.65-1.13c0.33-0.08,0.69-0.29,1.06,0.12c-0.07,0.16-0.11,0.38-0.24,0.52
		c-1.77,2.01-3.26,4.27-5.28,6.07c-0.21,0.19-0.4,0.43-0.54,0.67c-0.53,0.95-1.05,1.91-1.55,2.87c-0.53,1.02-0.73,2.09-0.68,3.26
		c0.03,0.78-0.07,1.59-0.27,2.35c-0.62,2.39-1.31,4.75-1.96,7.13c-0.08,0.28-0.17,0.56-0.18,0.85c-0.09,2.97-0.21,5.95-0.25,8.92
		c-0.04,2.81,0.5,5.56,1.02,8.3c0.89,4.72,0.55,9.39-0.36,14.05c-0.1,0.49-0.33,0.96-0.47,1.45c-0.14,0.49-0.3,0.98-0.34,1.47
		c-0.06,0.65-0.11,1.27-0.4,1.89c-0.32,0.66-0.15,1.35,0.15,2c1.74,3.7,2.33,7.69,2.84,11.67c0.36,2.84,0.57,5.71,0.63,8.57
		c0.08,3.99-0.68,7.87-2.13,11.59c-2.33,5.97-3.98,12.12-4.87,18.47c-0.17,1.18-0.2,2.38-0.3,3.58c-0.16,1.89,0.59,3.55,1.35,5.2
		c0.06,0.13,0.15,0.25,0.25,0.35c0.1,0.09,0.24,0.15,0.38,0.23c0.66-0.32,0.65-0.87,0.58-1.47c-0.13-1.08-0.23-2.16-0.35-3.37
		c0.31,0.13,0.48,0.2,0.73,0.31c0.02-0.23,0.05-0.43,0.04-0.63c-0.01-2-0.01-3.99-0.06-5.99c-0.03-1.22,0.12-2.39,0.59-3.51
		c0.74-1.8,1.51-3.59,2.26-5.39c0.08,0.01,0.16,0.02,0.24,0.02c0.06,0.21,0.17,0.42,0.18,0.63c0.16,3.48,0.33,6.96,0.43,10.44
		c0.05,1.77,0.38,3.41,1.18,5.02c0.6,1.22,0.95,2.59,1.22,3.93c0.46,2.32,1.28,4.45,2.66,6.37c0.81,1.12,1.57,2.26,2.34,3.41
		c1.47,2.2,3.44,3.92,5.43,5.62c0.95,0.81,2.01,1.38,3.24,1.71c0.75,0.2,1.46,0.62,2.15,1.01c0.95,0.53,1.8,1.2,2.92,1.4
		c0.4,0.08,0.75,0.49,1.2,0.81c0.19-0.79,0.4-1.58,0.56-2.38c0.03-0.17-0.07-0.43-0.2-0.57c-0.09-0.1-0.16-0.2-0.21-0.3
		c-0.38-0.05-0.74-0.17-1.08-0.35c-0.14-0.01-0.3-0.05-0.49-0.13c-2.55-0.97-5-2.12-6.94-4.13c-0.65-0.67-1.37-1.29-2.05-1.92
		c0.03-0.06,0.05-0.12,0.08-0.18c0.62,0.18,1.26,0.29,1.85,0.55c2.14,0.93,4.36,0.95,6.62,0.65c0.01,0,0.02,0,0.03,0
		c0.06-0.03,0.12-0.06,0.18-0.09c0.93-0.35,1.94-0.36,2.92-0.26c0.17-0.02,0.35-0.03,0.57-0.04c1.93-0.03,3.84-0.18,5.71-0.71
		c1.96-0.56,3.86-1.25,5.59-2.36c0.33-0.21,0.69-0.39,1.22-0.69c-0.24,0.9-0.39,1.63-0.63,2.33c-0.44,1.31-0.93,2.59-1.37,3.9
		c-0.12,0.35-0.12,0.73-0.17,1.1l0.22,0.15c0.26-0.14,0.6-0.22,0.77-0.44c2.11-2.61,4.1-5.3,4.76-8.69c0.32-1.63,0.48-3.3,0.7-4.95
		c0.03-0.22,0.01-0.45,0.09-0.64c0.78-1.97,0.6-3.99,0.32-6.01c-0.78-5.71-1.54-11.43-2.36-17.14c-0.32-2.23-0.62-4.45-0.62-6.71
		c0.01-3.44,0.65-6.78,1.38-10.11c0.39-1.77,0.79-3.53,1.62-5.35c0.26,0.19,0.52,0.3,0.65,0.5c2.37,3.65,4.21,7.54,5.01,11.85
		c0.37,1.96,0.6,3.94,0.89,5.91c0.06,0.39,0.11,0.77,0.18,1.27c1.03-0.72,1.57-1.58,1.54-2.71c-0.11-4.36-0.96-8.56-2.66-12.59
		c-0.66-1.57-1.27-3.16-1.92-4.73c-0.56-1.34-1.09-2.69-1.74-3.98c-1.15-2.28-2.1-4.61-2.63-7.12c-0.49-2.34-1.06-4.67-1.64-6.99
		c-0.62-2.5-0.63-5.03-0.45-7.57c0.04-0.54,0.07-1.09,0.04-1.63c-0.02-0.39-0.04-0.85-0.25-1.15c-0.61-0.86-0.49-1.76-0.37-2.71
		c0.79-6.26,1.56-12.52,2.32-18.79c0.05-0.39,0.09-0.83-0.04-1.18c-0.43-1.18-0.4-2.42-0.56-3.64c-0.31-2.37-0.7-4.73-1.07-7.09
		c-0.17-1.07-0.38-2.14-0.57-3.21c-0.08-0.46-0.24-0.83-0.73-0.98c-0.38-0.11-0.58-0.38-0.7-0.76c-0.54-1.72-1.53-3.2-2.57-4.64
		c-0.97-1.35-1.95-2.71-2.91-4.08c-0.24-0.35-0.42-0.73-0.71-1.24c1-0.12,1.85-0.23,2.7-0.31c3.41-0.34,6.8-0.29,10.21,0.08
		c1.67,0.19,3.29,0.48,4.89,0.96c1.06,0.32,2,0.82,2.86,1.52c3.17,2.56,4.94,5.93,5.66,9.88c0.26,1.42,0.32,2.88,0.48,4.32
		c0.05,0.47,0.09,0.94,0.17,1.4c0.36,1.91,0.27,3.83,0.16,5.75c-0.08,1.46-0.1,2.9,0.4,4.3c0.08,0.22,0.12,0.55,0,0.72
		c-0.42,0.62-0.25,1.23-0.14,1.88c0.24,1.52,0.08,3.04-0.27,4.53c-0.51,2.15-0.98,4.31-1.5,6.46c-0.13,0.56-0.32,1.12-0.57,1.64
		c-1.57,3.25-2.21,6.74-2.6,10.28c-0.16,1.44-0.2,2.89-0.27,4.34c-0.1,1.93,0.36,3.74,1.22,5.46c0.56,1.14,1.08,2.3,1.69,3.41
		c0.6,1.07,1.25,2.12,1.97,3.11c0.12,0.16,0.21,0.32,0.3,0.48c0.3,0.05,0.6,0.1,0.9,0.14c0.02-0.01,0.03-0.01,0.05-0.02
		c0.04-0.08,0.09-0.16,0.16-0.23c0.19-0.21,0.26-0.6,0.25-0.9c-0.01-0.31-0.02-0.62-0.03-0.93c-0.14-0.51-0.27-1.03-0.35-1.55
		c-0.4-0.7-0.75-1.44-0.98-2.24c-0.16-0.54-0.24-1.07-0.28-1.59c-1.43-5.98-1.37-11.99,0.38-17.93c1.7-5.74,2.31-11.56,2.2-17.52
		c-0.12-5.99-0.06-11.98-0.04-17.96c0-0.51-0.07-0.97-0.23-1.39c-0.38-0.25-0.72-0.57-0.96-0.95c-0.18-0.28-0.29-0.61-0.35-0.95
		c-0.3-0.39-0.59-0.78-0.86-1.19c-0.79-1.18-1.64-2.3-2.72-3.24c-0.35-0.3-0.67-0.68-0.87-1.09c-0.34-0.7-0.09-1.24,0.68-1.34
		c1.3-0.17,2.62-0.24,3.93-0.34c0.17-0.05,0.35-0.08,0.53-0.09c1.18,0,2.45,0.07,3.36,0.91c1.02,0.39,1.93,0.94,2.69,1.82
		c0.67,0.78,1.49,1.46,2.53,2c0.52-1.05-0.37-1.77-0.4-2.78c0.35,0.14,0.67,0.25,0.97,0.39c1.09,0.5,2.16,1.02,3.4,1.05
		c0.45,0.01,0.83,0.2,1.06,0.64c0.11,0.21,0.31,0.49,0.5,0.51c1,0.12,2,0.32,2.99-0.13c0.48-0.22,1.02-0.37,1.54-0.38
		c1.6-0.05,3.19-0.03,4.79-0.03c0.29,0,0.59-0.01,0.87,0.05C218.65,153.73,218.82,154.03,218.64,154.45z"/>
	<linearGradient id="SVGID_3_" gradientUnits="userSpaceOnUse" x1="106.1083" y1="212.9211" x2="117.132" y2="212.9211">
		<stop  offset="5.618000e-03" style="stop-color:#401617"/>
		<stop  offset="0.0843" style="stop-color:#6B4C2D"/>
		<stop  offset="0.382" style="stop-color:#A58A55"/>
		<stop  offset="0.5618" style="stop-color:#E5D4B5"/>
		<stop  offset="0.8034" style="stop-color:#967857"/>
		<stop  offset="0.9551" style="stop-color:#814F2F"/>
	</linearGradient>
	<path class="st5" d="M107.49,236.64c-0.85-0.26-1.06-0.74-1.12-1.31c-0.06-0.65-0.15-1.3-0.13-1.95c0.06-1.7,0.14-3.39-0.1-5.1
		c-0.16-1.14,0.22-2.24,0.76-3.24c2.35-4.35,3.93-9.04,5.98-13.52c1.1-2.4,1.15-5,0.98-7.59c-0.19-2.96-1.15-5.66-2.74-8.16
		c-0.96-1.5-1.85-3.03-2.76-4.56c-0.18-0.31-0.39-0.64-0.43-0.98c-0.03-0.28,0.09-0.72,0.3-0.85c0.25-0.16,0.78-0.24,0.99-0.09
		c1.26,0.97,2.46,2.02,3.68,3.04c0.08,0.07,0.14,0.17,0.18,0.27c0.59,1.73,1.56,3.26,2.5,4.8c0.5,0.81,0.64,1.77,0.61,2.73
		c-0.01,0.48,0.04,0.89,0.51,1.22c0.27,0.19,0.45,0.67,0.45,1.02c0,0.68-0.15,1.36-0.23,2.04c-0.18,1.44-0.41,2.87-0.53,4.31
		c-0.17,1.98-0.61,3.88-1.47,5.65c-0.85,1.76-1.76,3.5-2.75,5.18c-2.2,3.75-3.36,7.85-4.06,12.09c-0.19,1.14-0.16,2.31-0.27,3.47
		C107.77,235.61,107.61,236.08,107.49,236.64z"/>
	<linearGradient id="SVGID_4_" gradientUnits="userSpaceOnUse" x1="94.5369" y1="211.613" x2="98.2589" y2="211.613">
		<stop  offset="5.618000e-03" style="stop-color:#401617"/>
		<stop  offset="0.0843" style="stop-color:#6B4C2D"/>
		<stop  offset="0.382" style="stop-color:#A58A55"/>
		<stop  offset="0.5618" style="stop-color:#E5D4B5"/>
		<stop  offset="0.8034" style="stop-color:#967857"/>
		<stop  offset="0.9551" style="stop-color:#814F2F"/>
	</linearGradient>
	<path class="st6" d="M97.24,216.94c-1.54,0.08-1.54,0.08-1.92-1.19c-0.07-0.24-0.11-0.5-0.22-0.73c-1.22-2.53-0.22-4.88,0.66-7.2
		c0.22-0.6,0.96-1.04,1.54-1.45c0.43-0.3,0.9-0.05,0.93,0.49c0.05,0.93,0.03,1.87-0.06,2.8c-0.06,0.6-0.3,1.19-0.48,1.78
		c-0.42,1.43-0.84,2.85-0.47,4.37C97.31,216.15,97.24,216.52,97.24,216.94z"/>
</g>
</svg>
